<?xml version="1.0" encoding="UTF-8" standalone="no"?>
<!-- Created with Inkscape (http://www.inkscape.org/) -->

<svg
   xmlns:dc="http://purl.org/dc/elements/1.1/"
   xmlns:cc="http://creativecommons.org/ns#"
   xmlns:rdf="http://www.w3.org/1999/02/22-rdf-syntax-ns#"
   xmlns:svg="http://www.w3.org/2000/svg"
   xmlns="http://www.w3.org/2000/svg"
   xmlns:sodipodi="http://sodipodi.sourceforge.net/DTD/sodipodi-0.dtd"
   xmlns:inkscape="http://www.inkscape.org/namespaces/inkscape"
   width="512"
   height="512"
   viewBox="0 0 135.46666 135.46667"
   version="1.1"
   id="svg8"
   inkscape:version="0.92.4 (5da689c313, 2019-01-14)"
   sodipodi:docname="logo-navbar-as-path.svg">
  <defs
     id="defs2" />
  <sodipodi:namedview
     id="base"
     pagecolor="#ffffff"
     bordercolor="#666666"
     borderopacity="1.0"
     inkscape:pageopacity="0.0"
     inkscape:pageshadow="2"
     inkscape:zoom="0.8662058"
     inkscape:cx="423.28047"
     inkscape:cy="135.56421"
     inkscape:document-units="mm"
     inkscape:current-layer="layer2"
     showgrid="false"
     units="px"
     inkscape:snap-page="true"
     showguides="false"
     inkscape:guide-bbox="true"
     inkscape:snap-bbox="true"
     inkscape:snap-center="true"
     inkscape:window-width="1920"
     inkscape:window-height="1043"
     inkscape:window-x="0"
     inkscape:window-y="37"
     inkscape:window-maximized="0"
     inkscape:snap-global="true"
     inkscape:snap-nodes="true">
    <sodipodi:guide
       position="67.732999,67.733331"
       orientation="1,0"
       id="guide817"
       inkscape:locked="false"
       inkscape:label=""
       inkscape:color="rgb(0,0,255)" />
    <sodipodi:guide
       position="67.733327,67.732999"
       orientation="0,1"
       id="guide819"
       inkscape:locked="false"
       inkscape:label=""
       inkscape:color="rgb(0,0,255)" />
  </sodipodi:namedview>
  <metadata
     id="metadata5">
    <rdf:RDF>
      <cc:Work
         rdf:about="">
        <dc:format>image/svg+xml</dc:format>
        <dc:type
           rdf:resource="http://purl.org/dc/dcmitype/StillImage" />
        <dc:title></dc:title>
      </cc:Work>
    </rdf:RDF>
  </metadata>
  <g
     inkscape:groupmode="layer"
     id="layer2"
     inkscape:label="logo"
     style="display:inline"
     sodipodi:insensitive="true">
    <path
       style="color:#000000;font-style:normal;font-variant:normal;font-weight:normal;font-stretch:normal;font-size:medium;line-height:normal;font-family:sans-serif;font-variant-ligatures:normal;font-variant-position:normal;font-variant-caps:normal;font-variant-numeric:normal;font-variant-alternates:normal;font-feature-settings:normal;text-indent:0;text-align:start;text-decoration:none;text-decoration-line:none;text-decoration-style:solid;text-decoration-color:#000000;letter-spacing:normal;word-spacing:normal;text-transform:none;writing-mode:lr-tb;direction:ltr;text-orientation:mixed;dominant-baseline:auto;baseline-shift:baseline;text-anchor:start;white-space:normal;shape-padding:0;clip-rule:nonzero;display:inline;overflow:visible;visibility:visible;opacity:1;isolation:auto;mix-blend-mode:normal;color-interpolation:sRGB;color-interpolation-filters:linearRGB;solid-color:#000000;solid-opacity:1;vector-effect:none;fill:#000000;fill-opacity:1;fill-rule:nonzero;stroke:none;stroke-width:2.3812499;stroke-linecap:round;stroke-linejoin:round;stroke-miterlimit:4;stroke-dasharray:none;stroke-dashoffset:0;stroke-opacity:1;color-rendering:auto;image-rendering:auto;shape-rendering:auto;text-rendering:auto;enable-background:accumulate"
       d="m 67.732422,0.23828125 c -37.26255,0 -67.49414075,30.23354375 -67.49414075,67.49609375 0,37.262555 30.23159075,67.494145 67.49414075,67.494145 37.262548,0 67.496098,-30.23159 67.496098,-67.494145 0,-37.26255 -30.23355,-67.49609375 -67.496098,-67.49609375 z m 0,2.38085935 c 35.975628,0 65.115238,29.1396074 65.115238,65.1152344 0,35.975625 -29.13961,65.113285 -65.115238,65.113285 -35.975627,0 -65.1132814,-29.13766 -65.1132814,-65.113285 0,-35.975627 29.1376544,-65.1152344 65.1132814,-65.1152344 z"
       id="path822"
       inkscape:connector-curvature="0" />
    <path
       style="color:#000000;font-style:normal;font-variant:normal;font-weight:normal;font-stretch:normal;font-size:medium;line-height:normal;font-family:sans-serif;font-variant-ligatures:normal;font-variant-position:normal;font-variant-caps:normal;font-variant-numeric:normal;font-variant-alternates:normal;font-feature-settings:normal;text-indent:0;text-align:start;text-decoration:none;text-decoration-line:none;text-decoration-style:solid;text-decoration-color:#000000;letter-spacing:normal;word-spacing:normal;text-transform:none;writing-mode:lr-tb;direction:ltr;text-orientation:mixed;dominant-baseline:auto;baseline-shift:baseline;text-anchor:start;white-space:normal;shape-padding:0;clip-rule:nonzero;display:inline;overflow:visible;visibility:visible;opacity:1;isolation:auto;mix-blend-mode:normal;color-interpolation:sRGB;color-interpolation-filters:linearRGB;solid-color:#000000;solid-opacity:1;vector-effect:none;fill:#000000;fill-opacity:1;fill-rule:nonzero;stroke:none;stroke-width:1.58749998;stroke-linecap:round;stroke-linejoin:round;stroke-miterlimit:4;stroke-dasharray:9.525, 9.525;stroke-dashoffset:6.03249979;stroke-opacity:1;color-rendering:auto;image-rendering:auto;shape-rendering:auto;text-rendering:auto;enable-background:accumulate"
       d="m 64.830078,11 -0.03906,0.002 -0.408204,0.03125 -0.617187,0.378906 -0.05469,0.720703 0.554687,0.466797 0.238281,0.01758 0.390625,-0.0293 0.01758,-0.002 2.822266,-0.07031 2.820313,0.07031 0.01758,0.002 2.787109,0.210937 0.01563,0.002 0.478516,0.06055 0.679687,-0.246094 0.197266,-0.697265 -0.447266,-0.566407 -0.230469,-0.06641 -0.492187,-0.0625 -0.04102,-0.0039 -2.84375,-0.216797 -0.03906,-0.002 -2.882813,-0.07227 h -0.04102 z m -9.980469,1.412109 -1.292968,0.298829 -0.03906,0.0098 -2.658203,0.755859 -0.03711,0.01172 -2.601563,0.88086 -0.03711,0.01367 -2.5,0.984376 -0.478516,0.542968 0.16211,0.705078 0.666015,0.283204 0.232422,-0.05469 2.462891,-0.970703 0.01758,-0.0059 0.01953,-0.0078 2.529297,-0.855469 0.01563,-0.0039 0.02148,-0.0078 2.582031,-0.734376 0.01563,-0.0039 0.02148,-0.0059 1.255859,-0.289063 0.552735,-0.464843 -0.05469,-0.722657 -0.617187,-0.376953 z m 27.941407,0.890625 -0.300782,0.658204 0.357422,0.628906 0.21875,0.09961 1.06836,0.302735 0.02148,0.0078 0.01563,0.0039 2.529297,0.855469 0.01953,0.0078 0.01758,0.0059 2.5,0.986328 0.0059,0.002 2.4375,1.103516 0.0078,0.0039 0.117188,0.06055 h 0.722656 l 0.423828,-0.587891 -0.228516,-0.685547 -0.195312,-0.140625 -0.150391,-0.07617 -0.03516,-0.01758 -2.480469,-1.121093 -0.03711,-0.01563 -2.542969,-1.001954 -0.03711,-0.01367 -2.601563,-0.88086 -0.03906,-0.01172 L 83.5,13.162109 Z m -45.654297,6.580078 -1.148438,0.736329 -0.03125,0.02148 -2.197265,1.5625 -0.0293,0.02148 -2.117188,1.664063 -0.0293,0.02344 -2.03125,1.759766 -0.02734,0.02539 -0.06445,0.06055 -0.238282,0.683594 0.416016,0.591797 0.722656,0.0098 0.195313,-0.136719 0.03516,-0.0332 0.0039,-0.0039 0.02344,-0.02148 1.976562,-1.710937 2.083985,-1.640625 0.01562,-0.01172 0.01563,-0.01172 2.134765,-1.517578 0.0098,-0.0059 0.02148,-0.01563 1.115235,-0.712891 0.365234,-0.626953 -0.294922,-0.660156 -0.708984,-0.146485 z m 62.439453,2.085938 0.126953,0.712891 0.171875,0.166015 0.91016,0.648438 2.08593,1.640625 1.97657,1.710937 0.0195,0.01758 0.008,0.0078 1.91602,1.828125 0.20898,0.21875 0.68164,0.238281 0.59375,-0.414062 0.01,-0.72461 -0.13672,-0.195312 -0.23438,-0.244141 -0.0273,-0.02734 -1.94531,-1.855468 -0.0273,-0.02539 -2.0332,-1.759766 -0.0293,-0.02344 -2.11523,-1.664063 -0.0293,-0.02148 -0.91211,-0.648437 -0.7168,-0.105469 z m -76.470703,10.699219 -0.173828,0.164062 -0.707032,0.898438 -0.02148,0.0293 -1.5625,2.197265 -0.02148,0.03125 -1.457032,2.273438 -0.01953,0.03125 -1.349609,2.345703 -0.01758,0.03516 -0.128907,0.25 v 0.722656 l 0.587891,0.423828 0.685547,-0.228515 0.140625,-0.195313 0.109375,-0.216796 0.0059,-0.0098 0.01172,-0.02344 1.332031,-2.3125 1.414063,-2.207031 0.01563,-0.02148 0.0059,-0.0098 1.517578,-2.134765 0.01172,-0.01563 0.01172,-0.01562 0.683594,-0.867188 0.138671,-0.710938 -0.496093,-0.527343 z m 89.912111,2.548828 -0.11328,0.714844 0.10742,0.21289 0.5,0.701172 0.008,0.01172 0.0137,0.01953 1.41407,2.207031 1.33203,2.3125 0.0117,0.02344 0.006,0.0098 1.20117,2.347656 0.004,0.0078 0.20508,0.455078 0.56641,0.451172 0.69726,-0.195312 0.24805,-0.679688 -0.0644,-0.230468 -0.20899,-0.462891 -0.0176,-0.03516 -1.23632,-2.414063 -0.0176,-0.03516 -1.34961,-2.345703 -0.0195,-0.03125 -1.45703,-2.273438 -0.0215,-0.03125 -0.52148,-0.732422 -0.64063,-0.333984 z m -99.064455,14.341797 -0.109375,0.210937 -0.355469,1.052735 -0.01172,0.03711 -0.755859,2.658203 -0.0098,0.03906 -0.625,2.708984 -0.0078,0.03906 -0.492187,2.759765 -0.0059,0.03906 -0.0098,0.06641 0.246094,0.68164 0.697266,0.197266 0.566406,-0.449219 0.06641,-0.228515 0.0059,-0.04492 0.480468,-2.703125 0.0039,-0.01563 0.0039,-0.02344 0.607422,-2.632812 0.0059,-0.02148 0.0039,-0.01563 0.734376,-2.582031 0.0078,-0.02148 0.0039,-0.01563 0.34375,-1.015625 -0.105468,-0.716797 -0.642579,-0.332031 z m 107.326175,2.621094 -0.34571,0.636718 0.0293,0.236328 0.24609,0.861328 0.004,0.01563 0.006,0.02148 0.60742,2.632812 0.004,0.02344 0.004,0.01563 0.48243,2.707031 0.002,0.01367 0.34766,2.748047 0.002,0.01563 0.01,0.140625 0.37891,0.617187 0.7207,0.05469 0.4668,-0.554688 0.0176,-0.238281 -0.0137,-0.181641 -0.004,-0.03906 -0.35742,-2.802734 -0.006,-0.03906 -0.49219,-2.759765 -0.008,-0.03906 -0.625,-2.708984 -0.01,-0.03906 -0.25586,-0.898437 -0.49414,-0.529297 z m 1.71484,15.298828 -0.043,0.234375 -0.0703,2.841797 -0.002,0.01758 -0.0449,0.589843 0.28125,0.667969 0.70508,0.16211 0.54297,-0.476563 0.0547,-0.232422 0.0449,-0.607422 0.002,-0.03906 0.0742,-2.882813 -0.31445,-0.652344 -0.71094,-0.126953 z M 10.984375,68.546875 10.953125,68.783203 11,70.636719 l 0.002,0.03906 0.216797,2.84375 0.0039,0.04102 0.357422,2.802734 0.0059,0.03906 0.349609,1.96289 0.4375,0.576172 0.724609,-0.01758 0.408203,-0.597656 -0.0078,-0.238281 -0.347656,-1.951172 -0.002,-0.01367 -0.347657,-2.748047 -0.002,-0.01563 -0.210937,-2.787109 -0.002,-0.01758 -0.04492,-1.810547 -0.345704,-0.636719 -0.71875,-0.08984 z m 110.566405,11.685547 -0.0898,0.222656 -0.24805,1.083984 -0.004,0.01367 -0.73437,2.582032 -0.008,0.02148 -0.004,0.01563 -0.85547,2.529297 -0.008,0.01953 -0.006,0.01758 -0.98437,2.496094 -0.004,0.0098 -0.0488,0.103515 0.0352,0.722656 0.60742,0.394532 0.67383,-0.261719 0.13086,-0.201172 0.0625,-0.138672 0.0156,-0.03711 1.00195,-2.542969 0.0137,-0.03711 0.88086,-2.601563 0.0117,-0.03906 0.75586,-2.65625 0.01,-0.03906 0.25195,-1.097656 -0.17578,-0.703125 -0.67187,-0.265625 z m -106.785155,6.546875 -0.28125,0.666015 0.05273,0.234376 0.847657,2.146484 0.01563,0.03711 1.121093,2.480469 0.01758,0.03516 1.236329,2.414063 0.01758,0.03516 0.888672,1.542969 0.605468,0.394531 0.675782,-0.263672 0.18164,-0.699219 -0.08789,-0.222656 -0.869141,-1.509766 -0.01172,-0.02344 -0.0059,-0.0098 -1.201172,-2.347656 -0.0039,-0.0078 -1.103516,-2.4375 -0.002,-0.0059 -0.84375,-2.140625 -0.542969,-0.478515 z m 99.531255,10.683594 -0.15821,0.179687 -0.60547,0.947266 -0.0156,0.02148 -0.006,0.0098 -1.54102,2.164066 -1.64062,2.08593 -1.71094,1.97657 -0.0195,0.0195 -0.006,0.008 -0.17187,0.17969 -0.20508,0.69336 0.4414,0.57226 0.72266,-0.0234 0.18945,-0.14649 0.19922,-0.20898 0.0254,-0.0273 1.75977,-2.0332 0.0234,-0.0293 1.66407,-2.11523 0.0215,-0.0293 1.5625,-2.197264 0.0215,-0.03125 0.62695,-0.980469 0.0703,-0.71875 -0.54297,-0.478516 z m -90.130864,5.882809 -0.04492,0.72266 0.126953,0.20117 1.423828,1.64453 0.02539,0.0273 1.855468,1.94531 0.02734,0.0273 1.945313,1.85547 0.02734,0.0254 1.492188,1.29297 0.703125,0.17188 0.550781,-0.46875 -0.05859,-0.72266 -0.15625,-0.18164 -1.464843,-1.26758 -0.01953,-0.0195 -0.0078,-0.006 -1.890625,-1.80273 -1.828125,-1.91602 -0.0059,-0.008 -0.01953,-0.0195 -1.398437,-1.61719 -0.671875,-0.26953 z m 77.332034,8.06446 -0.71289,0.56054 -2.164066,1.54102 -0.01172,0.008 -0.01953,0.0137 -2.207032,1.41407 -2.3125,1.33203 -0.02344,0.0117 -0.0098,0.006 -0.396484,0.20117 -0.421875,0.58789 0.228516,0.68554 0.691406,0.21485 0.226562,-0.0762 0.427735,-0.21875 0.03516,-0.0176 2.345703,-1.34961 0.03125,-0.0195 2.273438,-1.45703 0.03125,-0.0215 2.197267,-1.5625 0.0293,-0.0215 0.74219,-0.58399 0.30273,-0.65625 -0.35742,-0.63086 -0.71875,-0.0781 z m -62.957034,4.42968 0.195312,0.69727 0.185547,0.14844 1.716797,0.98828 0.03516,0.0176 2.414063,1.23632 0.03516,0.0176 2.480469,1.1211 0.03711,0.0156 1.960937,0.77344 0.720704,-0.0703 0.363281,-0.625 -0.294922,-0.66211 -0.207031,-0.11914 -1.955078,-0.77149 -0.0059,-0.002 -2.4375,-1.10352 -0.0078,-0.004 -2.347656,-1.20117 -0.0098,-0.006 -0.02344,-0.0117 -1.68164,-0.96875 -0.722656,-0.0352 z m 46.457031,4.34375 -0.826172,0.2793 -0.01563,0.004 -0.02148,0.008 -2.582032,0.73437 -0.01563,0.004 -0.02148,0.006 -2.632813,0.60742 -0.02344,0.004 -0.01563,0.004 -2.707031,0.48243 -0.01367,0.002 -0.224609,0.0273 -0.597657,0.40821 -0.01758,0.72461 0.576172,0.43554 0.238281,0.008 0.265625,-0.0352 0.03906,-0.006 2.759765,-0.49219 0.03711,-0.008 2.710937,-0.625 0.03906,-0.01 2.65625,-0.75586 0.03906,-0.0117 0.863281,-0.29102 0.503907,-0.51953 -0.126953,-0.71289 -0.650391,-0.31446 z m -28.507813,1.96094 -0.232422,0.68359 0.419922,0.58985 0.226563,0.0781 2.160156,0.38477 0.03906,0.006 2.802734,0.35742 0.03906,0.004 2.845704,0.21484 0.03906,0.002 1.652344,0.043 0.652344,-0.31445 0.126953,-0.71094 -0.503907,-0.51953 -0.234374,-0.043 -1.611329,-0.0391 -0.01758,-0.002 -2.787109,-0.21094 -0.01563,-0.002 -2.748047,-0.34766 -0.01367,-0.002 -2.146484,-0.38282 z"
       id="path830"
       inkscape:connector-curvature="0" />
  </g>
  <g
     inkscape:groupmode="layer"
     id="layer5"
     inkscape:label="text"
     style="display:inline;opacity:1"
     sodipodi:insensitive="true">
    <path
       inkscape:connector-curvature="0"
       id="path884"
       style="font-style:normal;font-variant:normal;font-weight:500;font-stretch:normal;font-size:25.39999962px;line-height:5.29166651px;font-family:Butler;-inkscape-font-specification:'Butler, Medium';font-variant-ligatures:normal;font-variant-caps:normal;font-variant-numeric:normal;font-feature-settings:normal;text-align:start;letter-spacing:0px;word-spacing:0px;writing-mode:lr-tb;text-anchor:start;fill:#000505;fill-opacity:1;stroke:none;stroke-width:0.86539769px;stroke-linecap:butt;stroke-linejoin:miter;stroke-opacity:1"
       d="m 41.355673,38.490149 v 15.701777 h 1.246173 c 0.498469,-14.20637 15.53562,-14.455604 16.781793,-14.455604 h 3.240049 v 48.185347 c 0,5.566239 -3.073892,7.80935 -6.563176,7.80935 v 1.246172 h 23.261892 v -1.246172 c -3.489284,0 -6.563177,-2.243111 -6.563177,-7.80935 V 39.736322 h 3.240049 c 0.581548,0 16.366403,0.249234 16.864872,14.455604 h 1.246173 V 38.490149 Z" />
  </g>
</svg>
