<?xml version="1.0" encoding="UTF-8" standalone="no"?>
<!-- Created with Inkscape (http://www.inkscape.org/) -->

<svg
   xmlns:dc="http://purl.org/dc/elements/1.1/"
   xmlns:cc="http://creativecommons.org/ns#"
   xmlns:rdf="http://www.w3.org/1999/02/22-rdf-syntax-ns#"
   xmlns:svg="http://www.w3.org/2000/svg"
   xmlns="http://www.w3.org/2000/svg"
   xmlns:sodipodi="http://sodipodi.sourceforge.net/DTD/sodipodi-0.dtd"
   xmlns:inkscape="http://www.inkscape.org/namespaces/inkscape"
   width="512"
   height="512"
   viewBox="0 0 135.46666 135.46667"
   version="1.1"
   id="svg8"
   inkscape:version="0.92.4 (5da689c313, 2019-01-14)"
   sodipodi:docname="logo-as-path.svg">
  <defs
     id="defs2" />
  <sodipodi:namedview
     id="base"
     pagecolor="#ffffff"
     bordercolor="#666666"
     borderopacity="1.0"
     inkscape:pageopacity="0.0"
     inkscape:pageshadow="2"
     inkscape:zoom="1.225"
     inkscape:cx="285.00798"
     inkscape:cy="182.54108"
     inkscape:document-units="mm"
     inkscape:current-layer="layer5"
     showgrid="false"
     units="px"
     inkscape:snap-page="true"
     showguides="false"
     inkscape:guide-bbox="true"
     inkscape:snap-bbox="true"
     inkscape:snap-center="true"
     inkscape:window-width="1920"
     inkscape:window-height="1043"
     inkscape:window-x="0"
     inkscape:window-y="37"
     inkscape:window-maximized="0"
     inkscape:snap-global="true"
     inkscape:snap-nodes="true">
    <sodipodi:guide
       position="67.732999,67.733331"
       orientation="1,0"
       id="guide817"
       inkscape:locked="false"
       inkscape:label=""
       inkscape:color="rgb(0,0,255)" />
    <sodipodi:guide
       position="67.733327,67.732999"
       orientation="0,1"
       id="guide819"
       inkscape:locked="false"
       inkscape:label=""
       inkscape:color="rgb(0,0,255)" />
  </sodipodi:namedview>
  <metadata
     id="metadata5">
    <rdf:RDF>
      <cc:Work
         rdf:about="">
        <dc:format>image/svg+xml</dc:format>
        <dc:type
           rdf:resource="http://purl.org/dc/dcmitype/StillImage" />
        <dc:title />
      </cc:Work>
    </rdf:RDF>
  </metadata>
  <g
     inkscape:groupmode="layer"
     id="layer2"
     inkscape:label="logo"
     style="display:inline"
     sodipodi:insensitive="true">
    <circle
       style="opacity:1;fill:none;fill-opacity:1;stroke:#000000;stroke-width:1.05833328;stroke-linecap:round;stroke-linejoin:round;stroke-miterlimit:4;stroke-dasharray:none;stroke-dashoffset:0;stroke-opacity:1"
       id="path822"
       cx="67.73333"
       cy="67.73333"
       r="66.939583" />
    <circle
       style="opacity:1;fill:none;fill-opacity:1;stroke:#000000;stroke-width:0.5291667;stroke-linecap:round;stroke-linejoin:round;stroke-miterlimit:4;stroke-dasharray:2.11666667, 4.23333333;stroke-dashoffset:0;stroke-opacity:1"
       id="path830"
       cx="67.73333"
       cy="67.73333"
       r="63.953571" />
    <path
       style="color:#000000;font-style:normal;font-variant:normal;font-weight:normal;font-stretch:normal;font-size:medium;line-height:normal;font-family:sans-serif;font-variant-ligatures:normal;font-variant-position:normal;font-variant-caps:normal;font-variant-numeric:normal;font-variant-alternates:normal;font-feature-settings:normal;text-indent:0;text-align:start;text-decoration:none;text-decoration-line:none;text-decoration-style:solid;text-decoration-color:#000000;letter-spacing:normal;word-spacing:normal;text-transform:none;writing-mode:lr-tb;direction:ltr;text-orientation:mixed;dominant-baseline:auto;baseline-shift:baseline;text-anchor:start;white-space:normal;shape-padding:0;clip-rule:nonzero;display:inline;overflow:visible;visibility:visible;opacity:1;isolation:auto;mix-blend-mode:normal;color-interpolation:sRGB;color-interpolation-filters:linearRGB;solid-color:#000000;solid-opacity:1;vector-effect:none;fill:#000000;fill-opacity:1;fill-rule:evenodd;stroke:none;stroke-width:2.00000024;stroke-linecap:butt;stroke-linejoin:miter;stroke-miterlimit:4;stroke-dasharray:none;stroke-dashoffset:0;stroke-opacity:1;color-rendering:auto;image-rendering:auto;shape-rendering:auto;text-rendering:auto;enable-background:accumulate"
       d="m 71.138672,199.99805 v 2 H 233.82617 c 0.75128,-0.64878 1.55599,-1.33811 2.32422,-2 z m 184.529298,0 c -0.89202,0.694 -1.70439,1.32007 -2.58008,2 h 187.77344 v -2 z"
       transform="scale(0.26458333)"
       id="path849"
       inkscape:connector-curvature="0" />
    <path
       style="color:#000000;font-style:normal;font-variant:normal;font-weight:normal;font-stretch:normal;font-size:medium;line-height:normal;font-family:sans-serif;font-variant-ligatures:normal;font-variant-position:normal;font-variant-caps:normal;font-variant-numeric:normal;font-variant-alternates:normal;font-feature-settings:normal;text-indent:0;text-align:start;text-decoration:none;text-decoration-line:none;text-decoration-style:solid;text-decoration-color:#000000;letter-spacing:normal;word-spacing:normal;text-transform:none;writing-mode:lr-tb;direction:ltr;text-orientation:mixed;dominant-baseline:auto;baseline-shift:baseline;text-anchor:start;white-space:normal;shape-padding:0;clip-rule:nonzero;display:inline;overflow:visible;visibility:visible;opacity:1;isolation:auto;mix-blend-mode:normal;color-interpolation:sRGB;color-interpolation-filters:linearRGB;solid-color:#000000;solid-opacity:1;vector-effect:none;fill:#000000;fill-opacity:1;fill-rule:evenodd;stroke:none;stroke-width:2.00000024;stroke-linecap:butt;stroke-linejoin:miter;stroke-miterlimit:4;stroke-dasharray:none;stroke-dashoffset:0;stroke-opacity:1;color-rendering:auto;image-rendering:auto;shape-rendering:auto;text-rendering:auto;enable-background:accumulate"
       d="m 71.138672,310.00195 v 2.00196 h 93.751948 c -0.18097,-0.60437 -0.33922,-1.21687 -0.45507,-1.84375 -0.01,-0.0523 -0.0142,-0.10583 -0.0234,-0.15821 z m 104.292968,0 c 0.37083,0.75154 0.91141,1.40988 1.61524,2.00196 h 16.15624 c 0.60972,-0.63444 1.14393,-1.3562 1.4375,-2.00196 z m 30.23828,0 c -0.0996,0.64155 -0.22093,1.27616 -0.38867,1.89063 0.0952,0.0335 0.27477,0.0751 0.38867,0.11133 h 30.16797 c 9.00811,-0.36107 12.12463,-0.44337 15.90625,-0.41407 a 3.3137506,3.3137506 0 0 1 0.006,0 c 0.91905,0.009 1.77547,0.0183 2.41992,0.0274 0.0581,8.2e-4 0.0881,0.001 0.14258,0.002 0.014,-0.01 0.0169,-0.01 0.0312,-0.0195 0.52678,-0.35844 1.26803,-0.88007 2.05859,-1.45313 0.0713,-0.0517 0.13232,-0.0932 0.20313,-0.14453 z m 84.08985,0 c -0.57211,0.48643 -1.48506,1.25816 -2.00782,1.70313 -0.14183,0.12073 -0.20186,0.17352 -0.33984,0.29101 0.26299,0.003 0.47949,0.005 0.69141,0.008 h 152.75781 v -2.00196 z m -35.00586,1.59375 c -0.14517,3.9e-4 -0.25776,0.009 -0.34766,0.0254 0.20338,0.003 0.4149,0.007 0.55859,0.01 0.10218,0.002 0.18635,0.005 0.26563,0.008 0.0457,0.002 -1e-5,-0.0156 0.0606,-0.0137 -0.2143,-0.0219 -0.39195,-0.0297 -0.53711,-0.0293 z"
       transform="scale(0.26458333)"
       id="path853"
       inkscape:connector-curvature="0" />
  </g>
  <g
     inkscape:groupmode="layer"
     id="layer4"
     inkscape:label="scissors"
     style="display:inline"
     sodipodi:insensitive="true">
    <path
       style="color:#000000;font-style:normal;font-variant:normal;font-weight:normal;font-stretch:normal;font-size:medium;line-height:normal;font-family:sans-serif;font-variant-ligatures:normal;font-variant-position:normal;font-variant-caps:normal;font-variant-numeric:normal;font-variant-alternates:normal;font-feature-settings:normal;text-indent:0;text-align:start;text-decoration:none;text-decoration-line:none;text-decoration-style:solid;text-decoration-color:#000000;letter-spacing:normal;word-spacing:normal;text-transform:none;writing-mode:lr-tb;direction:ltr;text-orientation:mixed;dominant-baseline:auto;baseline-shift:baseline;text-anchor:start;white-space:normal;shape-padding:0;clip-rule:nonzero;display:inline;overflow:visible;visibility:visible;opacity:1;isolation:auto;mix-blend-mode:normal;color-interpolation:sRGB;color-interpolation-filters:linearRGB;solid-color:#000000;solid-opacity:1;vector-effect:none;fill:#000000;fill-opacity:1;fill-rule:evenodd;stroke:none;stroke-width:2.00000024;stroke-linecap:butt;stroke-linejoin:miter;stroke-miterlimit:4;stroke-dasharray:none;stroke-dashoffset:0;stroke-opacity:1;color-rendering:auto;image-rendering:auto;shape-rendering:auto;text-rendering:auto;enable-background:accumulate"
       d="m 295.65234,310.00977 c -1.99642,-0.006 -3.97812,0.01 -5.95117,0.041 -0.55421,0.47123 -1.4416,1.22222 -1.94922,1.6543 -0.14183,0.12073 -0.20186,0.17352 -0.33984,0.29101 0.45987,0.006 0.7175,0.008 1.20898,0.0137 0.60085,0.007 1.50747,0.0196 2.14649,0.0273 1.61832,-0.0201 3.24284,-0.0325 4.87695,-0.0273 z m -90.0957,15.05078 c -1.9624,0.0177 -4.14958,0.0448 -6.97656,0.0859 -59.98389,19.29408 -100.153796,51.60102 -115.689455,63.73829 l 1.226563,1.58007 C 100.23976,377.86905 142.44133,343.90898 205.55664,325.06055 Z"
       transform="scale(0.26458333)"
       id="path1287"
       inkscape:connector-curvature="0" />
    <path
       style="fill:#ffffff;fill-opacity:1;stroke:none;stroke-width:0.00343017"
       id="path1054"
       d="m 74.339155,86.87744 c -0.02524,0.0067 -0.0553,-0.0011 -0.064,-0.01278 -0.0121,-0.01216 0.0098,-0.01938 0.0466,-0.01055 0.03734,0.0054 0.04604,0.0171 0.0174,0.02333 z"
       inkscape:connector-curvature="0" />
    <path
       style="fill:#ffffff;fill-opacity:1;stroke:none;stroke-width:0.00343017"
       id="path1056"
       d="m 74.198439,86.89163 c -0.02524,0.0067 -0.0553,-0.0011 -0.064,-0.01278 -0.0121,-0.01216 0.0098,-0.01938 0.0466,-0.01055 0.03734,0.0054 0.04604,0.0171 0.0174,0.02333 z"
       inkscape:connector-curvature="0" />
    <path
       style="fill:#000000;stroke:none;stroke-width:0.01296442"
       d="m 167.5,308 c 0.0417,0.52863 0.0993,1.05173 0.19336,1.55664 0.96017,5.19664 4.90735,9.67497 9.9707,11.3418 1.77697,0.57295 3.64721,0.7794 9.36328,1.02148 0.7553,0.0313 5.90805,-0.005 11.47461,-0.0859 12.52477,-0.18222 14.93187,-0.16042 23.14453,0.30079 1.57289,0.0847 3.67877,0.1961 4.67969,0.25 1.00093,0.0539 3.46431,0.33197 5.47852,0.625 4.11822,0.59915 5.61592,1.01383 7.91211,2.16015 1.16092,0.57503 1.20608,0.62192 2.24218,1.96485 l 1.0586,1.37304 0.0273,0.98633 c 0.0133,0.53907 -0.0536,1.26189 -0.14062,1.58984 -0.43509,1.63982 -2.68686,5.13738 -4.7793,7.45313 -1.8405,2.02489 -5.69988,5.68313 -11.30859,10.73633 -4.02273,3.60703 -5.2921,4.67955 -13.66993,11.38672 -4.2569,3.41574 -8.28487,6.69438 -8.93359,7.28125 -4.00803,3.59606 -5.43171,5.01361 -6.35547,6.32031 -3.2075,4.57718 -3.51177,10.90038 -0.75781,15.83398 1.10233,1.96831 3.31763,4.30787 5.31641,5.60742 5.00242,3.25629 10.85912,3.51926 16.6875,0.73829 1.67601,-0.80425 4.24109,-2.76347 5.51171,-4.20313 2.81348,-3.21959 4.13116,-5.88516 4.64258,-9.40039 0.28184,-1.93723 0.26007,-3.40749 -0.0723,-5.35547 -0.7351,-4.31234 -3.51061,-8.56786 -7.07617,-10.89453 -0.87308,-0.57245 -0.99703,-0.70833 -1.16797,-1.24414 -0.22369,-0.71379 -0.20109,-0.95767 0.19921,-1.9082 0.39471,-0.91204 1.08723,-1.97768 2.05274,-3.1211 1.43998,-1.70323 8.75046,-7.64874 19.29883,-15.67773 9.83014,-7.50464 12.9765,-9.95646 15.83008,-12.3711 1.44602,-1.20451 2.63949,-2.19522 2.65234,-2.19335 0.077,0.0112 5.83268,-0.38323 7.67383,-0.52149 4.86329,-0.37982 11.39231,-1.04175 11.30273,-1.14648 -0.0201,-0.0421 -0.32244,-0.0334 -0.65625,0.01 -0.33381,0.0435 -0.63622,0.052 -0.65625,0.01 -0.0219,-0.0294 0.71483,-0.14582 1.64649,-0.2461 4.86189,-0.55033 20.08802,-2.46097 24.0332,-3.01367 1.12246,-0.15114 2.06987,-0.26385 2.0918,-0.23437 0.0219,0.0294 -0.31773,0.11102 -0.75977,0.17773 -0.44202,0.0667 -0.78169,0.14826 -0.75977,0.17774 0.13156,0.17635 10.4733,-1.56801 13.44532,-2.27539 4.27269,-1.00289 8.11185,-2.26555 10.86718,-3.55469 1.7145,-0.79863 3.83439,-2.32408 4.16797,-2.9961 0.11619,-0.2582 0.20357,-0.49395 0.18164,-0.52343 -0.0329,-0.0441 -52.18064,-0.72719 -54.41015,-0.71094 l -0.48242,-0.004 0.53515,-0.53711 C 279.35638,314.51334 282.54073,311.79263 287,308 h -21.7793 c -2.32532,1.5845 -4.46924,3.08457 -6.87304,4.82812 -1.62564,1.17839 -3.03716,2.14019 -3.12696,2.12696 -0.0898,-0.0131 -1.67233,-0.0353 -3.5039,-0.0527 -3.89967,-0.0302 -6.6596,0.0402 -16.66211,0.44532 -13.08671,0.53289 -19.65859,0.6777 -25.94336,0.5625 -1.34569,-0.0255 -1.93762,-0.0991 -3.1543,-0.38086 -2.62208,-0.6173 -3.81924,-1.30179 -4.17773,-2.34961 -0.18191,-0.55051 -0.1833,-0.62963 0.0957,-1.4668 0.30653,-0.90201 0.54231,-2.3614 0.64453,-3.71289 h -4.00781 c -0.0913,1.11566 -0.337,2.19997 -0.76953,3.20312 -0.81718,1.92485 -2.47708,3.79285 -4.29492,4.85157 -2.64781,1.54062 -5.17661,1.99848 -10.17774,1.79492 -2.20362,-0.0717 -3.96009,-0.60252 -6.22851,-1.84961 -3.22146,-1.77771 -5.12284,-4.55728 -5.51172,-8 z m 139.5625,16.75 c 0.0323,-0.008 0.0886,-0.007 0.1582,0.01 0.14109,0.0205 0.1727,0.0645 0.0645,0.0879 -0.0954,0.0254 -0.20736,-0.003 -0.24024,-0.0469 -0.0229,-0.023 -0.0148,-0.0424 0.0176,-0.0508 z m -28.95898,3.64844 c 0.0323,-0.008 0.0866,-0.007 0.15625,0.01 0.14112,0.0205 0.17465,0.0645 0.0664,0.0879 -0.0954,0.0254 -0.2093,-0.005 -0.24219,-0.0488 -0.0228,-0.023 -0.0128,-0.0405 0.0195,-0.0488 z m -0.53125,0.0527 c 0.0323,-0.008 0.0866,-0.007 0.15625,0.01 0.14112,0.0205 0.17465,0.0645 0.0664,0.0879 -0.0954,0.0254 -0.2093,-0.005 -0.24219,-0.0488 -0.0228,-0.023 -0.0128,-0.0404 0.0195,-0.0488 z m -63.25196,39.94727 c 0.4155,0.003 0.84231,0.0229 1.17774,0.0586 3.03542,0.29751 5.5053,1.77032 7.44922,4.4375 2.02976,2.79758 2.8099,6.08189 2.29101,9.64844 -0.44773,2.98738 -1.4053,4.79884 -3.82617,7.21094 -1.8216,1.80491 -3.21318,2.82196 -4.80078,3.46875 -4.97205,2.02783 -9.69461,1.34054 -13.4043,-1.97657 -3.06217,-2.72507 -4.30912,-5.94689 -3.77344,-9.6289 0.39547,-2.62817 1.90004,-5.67045 3.73633,-7.48633 1.2242,-1.21059 3.81383,-3.25696 5.03125,-3.9707 1.41943,-0.84156 3.5552,-1.56691 5.00586,-1.72266 0.29251,-0.0294 0.69778,-0.0422 1.11328,-0.0391 z"
       transform="scale(0.26458333)"
       id="path1029"
       inkscape:connector-curvature="0" />
    <path
       style="fill:#000000;stroke:none;stroke-width:0.00343017"
       inkscape:connector-curvature="0"
       d="m 74.339155,86.87744 c -0.02524,0.0067 -0.0553,-0.0011 -0.064,-0.01278 -0.0121,-0.01216 0.0098,-0.01938 0.0466,-0.01055 0.03734,0.0054 0.04604,0.0171 0.0174,0.02333 z"
       id="path1031" />
    <path
       style="fill:#000000;stroke:none;stroke-width:0.00343017"
       inkscape:connector-curvature="0"
       d="m 74.198439,86.89163 c -0.02524,0.0067 -0.0553,-0.0011 -0.064,-0.01278 -0.0121,-0.01216 0.0098,-0.01938 0.0466,-0.01055 0.03734,0.0054 0.04604,0.0171 0.0174,0.02333 z"
       id="path1033" />
    <path
       inkscape:connector-curvature="0"
       d="m 74.339155,86.87744 c -0.02524,0.0067 -0.0553,-0.0011 -0.064,-0.01278 -0.0121,-0.01216 0.0098,-0.01938 0.0466,-0.01055 0.03734,0.0054 0.04604,0.0171 0.0174,0.02333 z"
       id="path1526"
       style="fill:#ffffff;fill-opacity:1;stroke:none;stroke-width:0.00343017" />
    <path
       inkscape:connector-curvature="0"
       d="m 74.198439,86.89163 c -0.02524,0.0067 -0.0553,-0.0011 -0.064,-0.01278 -0.0121,-0.01216 0.0098,-0.01938 0.0466,-0.01055 0.03734,0.0054 0.04604,0.0171 0.0174,0.02333 z"
       id="path1528"
       style="fill:#ffffff;fill-opacity:1;stroke:none;stroke-width:0.00343017" />
  </g>
  <g
     inkscape:groupmode="layer"
     id="layer6"
     inkscape:label="needle"
     style="display:inline"
     sodipodi:insensitive="true">
    <path
       style="color:#000000;font-style:normal;font-variant:normal;font-weight:normal;font-stretch:normal;font-size:medium;line-height:normal;font-family:sans-serif;font-variant-ligatures:normal;font-variant-position:normal;font-variant-caps:normal;font-variant-numeric:normal;font-variant-alternates:normal;font-feature-settings:normal;text-indent:0;text-align:start;text-decoration:none;text-decoration-line:none;text-decoration-style:solid;text-decoration-color:#000000;letter-spacing:normal;word-spacing:normal;text-transform:none;writing-mode:lr-tb;direction:ltr;text-orientation:mixed;dominant-baseline:auto;baseline-shift:baseline;text-anchor:start;white-space:normal;shape-padding:0;clip-rule:nonzero;display:inline;overflow:visible;visibility:visible;opacity:1;isolation:auto;mix-blend-mode:normal;color-interpolation:sRGB;color-interpolation-filters:linearRGB;solid-color:#000000;solid-opacity:1;vector-effect:none;fill:#000000;fill-opacity:1;fill-rule:evenodd;stroke:none;stroke-width:2.00000024;stroke-linecap:butt;stroke-linejoin:miter;stroke-miterlimit:4;stroke-dasharray:none;stroke-dashoffset:0;stroke-opacity:1;color-rendering:auto;image-rendering:auto;shape-rendering:auto;text-rendering:auto;enable-background:accumulate"
       d="m 427.53711,121.57227 c -19.82582,15.48891 -79.08663,63.27278 -168.17773,75.54492 -1.02381,0.79859 -2.10785,1.64863 -3.11133,2.42969 91.55977,-11.60081 152.49745,-60.75857 172.52148,-76.40235 z m -190.68164,77.81835 c -6.79563,0.43352 -13.74366,0.65123 -20.83985,0.62891 l -0.008,2 c 6.2371,0.0196 12.35409,-0.15696 18.36133,-0.49023 0.80781,-0.69721 1.65919,-1.42652 2.48633,-2.13868 z"
       transform="scale(0.26458333)"
       id="path1285"
       inkscape:connector-curvature="0" />
    <path
       style="fill:#000000;stroke:none;stroke-width:0.01352409"
       d="m 354.03516,108.87695 c -2.79397,-0.13906 -7.47216,1.62786 -13.34375,5.13282 -1.85932,1.11092 -4.45873,2.83303 -6.44141,4.19531 -1.98268,1.36228 -3.823,2.76382 -5.65234,4.22265 -1.82934,1.45884 -5.29612,4.37819 -7.79688,6.68165 -4.52799,4.1788 -7.48756,7.33 -11.36133,12.06835 l -2.84375,3.49415 -10.28515,8.5625 C 272.95448,172.68372 252.64246,189.86697 236.26953,204 h 9.15625 c 6.13179,-4.7378 12.65165,-9.80889 19.65039,-15.29492 4.65067,-3.63384 6.70177,-5.22989 8.82227,-6.89258 2.1205,-1.66269 5.53976,-4.31656 8.34765,-6.61523 2.80791,-2.29868 11.69466,-9.27545 18.20313,-14.44141 6.49367,-5.17807 12.0771,-9.54342 12.41211,-9.72656 0.32292,-0.16834 1.32012,-0.66413 2.21484,-1.09375 6.27246,-3.0491 14.62676,-8.50778 21.36524,-13.95508 l 1.63281,-1.33399 3.70312,-3.19726 1.45508,-1.34375 c 9.47433,-8.79377 14.88114,-16.81187 13.38086,-19.8418 -0.42675,-0.86612 -1.30814,-1.32351 -2.57812,-1.38672 z m -3.0293,4.50196 c 0.16192,0.025 0.28735,0.0812 0.37695,0.16992 0.43617,0.41834 -0.74135,2.49301 -2.64062,4.69531 -2.33777,2.70845 -6.80363,6.78684 -9.44141,9.11719 -2.63778,2.33035 -6.63412,5.81783 -10.96484,9.10547 -8.00188,5.99549 -14.41364,9.69748 -16.04883,9.25 -0.36336,-0.0994 -0.34355,-0.84852 0.041,-1.6211 0.19231,-0.38629 0.97991,-1.4844 1.75196,-2.45898 2.70488,-3.38413 7.5995,-8.10258 13.66797,-13.1836 10.5195,-8.81629 20.82897,-15.44889 23.25781,-15.07421 z"
       transform="scale(0.26458333)"
       id="path1418"
       inkscape:connector-curvature="0" />
  </g>
  <g
     inkscape:groupmode="layer"
     id="layer3"
     inkscape:label="thread"
     style="display:inline"
     sodipodi:insensitive="true">
    <path
       style="color:#000000;font-style:normal;font-variant:normal;font-weight:normal;font-stretch:normal;font-size:medium;line-height:normal;font-family:sans-serif;font-variant-ligatures:normal;font-variant-position:normal;font-variant-caps:normal;font-variant-numeric:normal;font-variant-alternates:normal;font-feature-settings:normal;text-indent:0;text-align:start;text-decoration:none;text-decoration-line:none;text-decoration-style:solid;text-decoration-color:#000000;letter-spacing:normal;word-spacing:normal;text-transform:none;writing-mode:lr-tb;direction:ltr;text-orientation:mixed;dominant-baseline:auto;baseline-shift:baseline;text-anchor:start;white-space:normal;shape-padding:0;clip-rule:nonzero;display:inline;overflow:visible;visibility:visible;opacity:1;isolation:auto;mix-blend-mode:normal;color-interpolation:sRGB;color-interpolation-filters:linearRGB;solid-color:#000000;solid-opacity:1;vector-effect:none;fill:#000000;fill-opacity:1;fill-rule:evenodd;stroke:none;stroke-width:0.5291667;stroke-linecap:butt;stroke-linejoin:miter;stroke-miterlimit:4;stroke-dasharray:none;stroke-dashoffset:0;stroke-opacity:1;color-rendering:auto;image-rendering:auto;shape-rendering:auto;text-rendering:auto;enable-background:accumulate"
       d="m 64.748047,21.75 c -4.682188,-0.289464 -8.757434,0.498569 -11.923828,1.796875 -4.221859,1.731075 -6.868316,4.341261 -7.117188,6.664063 -0.08531,0.796192 0.146544,1.471895 0.603516,1.99414 0.456972,0.522245 1.120408,0.899248 1.908203,1.191406 1.57559,0.584317 3.669086,0.835078 5.734375,1.060547 2.065289,0.225469 4.105145,0.423698 5.511719,0.853516 0.703287,0.214909 1.240798,0.490658 1.546875,0.816406 0.306076,0.325748 0.414994,0.683772 0.279297,1.226563 -0.283432,1.133725 -1.145105,2.109794 -2.59375,2.978515 -1.448646,0.868722 -3.470859,1.614489 -5.996094,2.269531 -5.05047,1.310085 -12.110253,2.265412 -20.660156,3.257813 l 0.0625,0.525391 c 8.555347,-0.993033 15.624696,-1.947055 20.730468,-3.271485 2.552886,-0.662215 4.614811,-1.414687 6.134766,-2.326172 1.519955,-0.911484 2.508467,-1.996759 2.835938,-3.30664 0.169753,-0.679013 0.0025,-1.277732 -0.408204,-1.714844 -0.410716,-0.437112 -1.028367,-0.732067 -1.777343,-0.960937 -1.497954,-0.457742 -3.548883,-0.648102 -5.609375,-0.873047 -2.060493,-0.224946 -4.13015,-0.483396 -5.607422,-1.03125 -0.738636,-0.273928 -1.322288,-0.618895 -1.69336,-1.042969 -0.371071,-0.424075 -0.546419,-0.91962 -0.474609,-1.589844 0.209305,-1.953511 2.673083,-4.542006 6.791016,-6.230469 4.117932,-1.688462 9.849462,-2.506219 16.486328,-1.099609 10.036514,2.127127 15.748389,10.204236 20.505859,14.388672 1.189368,1.046109 2.321185,1.85219 3.472656,2.248047 1.151472,0.395856 2.33058,0.362039 3.509766,-0.263672 2.358371,-1.251422 4.74218,-4.745537 7.70703,-11.716797 l -0.48633,-0.207031 c -2.94928,6.934648 -5.346552,10.328978 -7.468747,11.455078 -1.061098,0.56305 -2.047878,0.590632 -3.089844,0.232422 -1.041965,-0.35821 -2.130001,-1.121878 -3.294921,-2.146485 C 85.707507,32.82931 79.883231,24.594867 69.621094,22.419922 67.936605,22.062913 66.308776,21.846488 64.748047,21.75 Z"
       id="path1437"
       inkscape:connector-curvature="0" />
  </g>
  <g
     inkscape:groupmode="layer"
     id="layer5"
     inkscape:label="text"
     style="display:inline;opacity:1"
     sodipodi:insensitive="true">
    <g
       aria-label="Ticivara"
       style="font-style:normal;font-variant:normal;font-weight:normal;font-stretch:normal;font-size:25.39999962px;line-height:5.29166651px;font-family:Butler;-inkscape-font-specification:'Butler, Normal';font-variant-ligatures:normal;font-variant-caps:normal;font-variant-numeric:normal;font-feature-settings:normal;text-align:start;letter-spacing:0px;word-spacing:0px;writing-mode:lr-tb;text-anchor:start;display:inline;fill:#000505;fill-opacity:1;stroke:none;stroke-width:0.26458332px;stroke-linecap:butt;stroke-linejoin:miter;stroke-opacity:1"
       id="text826">
      <path
         d="m 25.343112,58.678184 v 4.4704 h 0.3302 c 0.1016,-4.0894 3.8862,-4.1402 4.6736,-4.1402 h 1.4986 v 15.0876 c 0,1.6764 -0.762,2.1336 -1.8288,2.1336 v 0.3302 h 6.1976 v -0.3302 c -1.0668,0 -1.8542,-0.4572 -1.8542,-2.1336 v -15.0876 h 1.4986 c 0.3556,0 4.5974,0.0508 4.699,4.1402 h 0.3302 v -4.4704 z"
         style="font-style:normal;font-variant:normal;font-weight:normal;font-stretch:normal;font-size:25.39999962px;font-family:Butler;-inkscape-font-specification:'Butler, Normal';font-variant-ligatures:normal;font-variant-caps:normal;font-variant-numeric:normal;font-feature-settings:normal;text-align:start;writing-mode:lr-tb;text-anchor:start;fill:#000505;fill-opacity:1;stroke:none;stroke-width:0.26458332px"
         id="path1478"
         inkscape:connector-curvature="0" />
      <path
         d="m 43.853759,62.488184 c 0.7112,0 1.2954,-0.5842 1.2954,-1.2954 0,-0.7366 -0.5842,-1.2954 -1.2954,-1.2954 -0.7366,0 -1.2954,0.5588 -1.2954,1.2954 0,0.7112 0.5588,1.2954 1.2954,1.2954 z m 2.3876,13.7414 c -0.9144,-0.2286 -1.0414,-0.6096 -1.0414,-2.032 v -9.6012 l -3.4798,0.7366 v 0.3048 c 1.0668,0.2794 1.27,0.635 1.27,1.524 v 7.0358 c 0,1.2954 -0.0508,1.7526 -1.016,2.032 v 0.3302 h 4.2672 z"
         style="font-style:normal;font-variant:normal;font-weight:normal;font-stretch:normal;font-size:25.39999962px;font-family:Butler;-inkscape-font-specification:'Butler, Normal';font-variant-ligatures:normal;font-variant-caps:normal;font-variant-numeric:normal;font-feature-settings:normal;text-align:start;writing-mode:lr-tb;text-anchor:start;fill:#000505;fill-opacity:1;stroke:none;stroke-width:0.26458332px"
         id="path1480"
         inkscape:connector-curvature="0" />
      <path
         d="m 58.28453,73.308584 c -0.4572,1.0414 -2.032,2.2352 -3.8862,2.0828 -1.8034,-0.1778 -3.7084,-1.5748 -3.7084,-4.953 0,-4.7498 2.794,-5.5118 3.81,-5.5118 1.7018,0 2.3876,0.7112 2.159,0.762 -0.254,0.0254 -0.5334,0.2286 -0.7112,0.5334 -0.3302,0.5334 -0.1524,1.27 0.4318,1.6002 0.5334,0.3302 1.2954,0.1016 1.6256,-0.4318 0.2286,-0.4064 0.1778,-0.889 -0.0254,-1.2446 -0.2286,-0.4064 -0.9906,-1.5494 -3.4798,-1.5494 -3.8862,0 -6.172199,2.9972 -6.172199,6.1214 0,3.7338 2.692399,6.0706 5.537199,6.0706 3.1242,0 4.4196,-2.0828 4.699,-3.3528 z"
         style="font-style:normal;font-variant:normal;font-weight:normal;font-stretch:normal;font-size:25.39999962px;font-family:Butler;-inkscape-font-specification:'Butler, Normal';font-variant-ligatures:normal;font-variant-caps:normal;font-variant-numeric:normal;font-feature-settings:normal;text-align:start;writing-mode:lr-tb;text-anchor:start;fill:#000505;fill-opacity:1;stroke:none;stroke-width:0.26458332px"
         id="path1482"
         inkscape:connector-curvature="0" />
      <path
         d="m 62.258837,62.488184 c 0.7112,0 1.2954,-0.5842 1.2954,-1.2954 0,-0.7366 -0.5842,-1.2954 -1.2954,-1.2954 -0.736599,0 -1.295399,0.5588 -1.295399,1.2954 0,0.7112 0.5588,1.2954 1.295399,1.2954 z m 2.3876,13.7414 c -0.9144,-0.2286 -1.0414,-0.6096 -1.0414,-2.032 v -9.6012 l -3.479799,0.7366 v 0.3048 c 1.0668,0.2794 1.27,0.635 1.27,1.524 v 7.0358 c 0,1.2954 -0.0508,1.7526 -1.016,2.032 v 0.3302 h 4.267199 z"
         style="font-style:normal;font-variant:normal;font-weight:normal;font-stretch:normal;font-size:25.39999962px;font-family:Butler;-inkscape-font-specification:'Butler, Normal';font-variant-ligatures:normal;font-variant-caps:normal;font-variant-numeric:normal;font-feature-settings:normal;text-align:start;writing-mode:lr-tb;text-anchor:start;fill:#000505;fill-opacity:1;stroke:none;stroke-width:0.26458332px"
         id="path1484"
         inkscape:connector-curvature="0" />
      <path
         d="m 72.999069,64.824984 v 0.3302 c 2.7686,0 1.4224,3.3782 1.4224,3.3782 l -1.9558,5.2578 -3.1496,-6.8834 c 0,0 -0.9144,-1.7526 0.7874,-1.7526 v -0.3302 h -5.2832 v 0.3302 c 0.4318,0.0254 1.143,0 1.778,1.27 0,0 0.3302,0.6096 4.826,10.3632 h 0.254 l 3.1496,-8.382 c 1.3462,-3.2258 2.1082,-3.2512 3.0734,-3.2512 v -0.3302 z"
         style="font-style:normal;font-variant:normal;font-weight:normal;font-stretch:normal;font-size:25.39999962px;font-family:Butler;-inkscape-font-specification:'Butler, Normal';font-variant-ligatures:normal;font-variant-caps:normal;font-variant-numeric:normal;font-feature-settings:normal;text-align:start;writing-mode:lr-tb;text-anchor:start;fill:#000505;fill-opacity:1;stroke:none;stroke-width:0.26458332px"
         id="path1486"
         inkscape:connector-curvature="0" />
      <path
         d="m 84.692592,70.285984 c 0,0 0,3.7592 0,3.7846 -0.254,0.6096 -0.889,1.5748 -2.2352,1.5748 -1.5494,0 -2.0066,-1.27 -2.0066,-2.0066 0,-1.524 1.2954,-2.6416 4.2418,-3.3528 z m 3.429,5.3086 c -1.1684,0 -1.143,-1.6002 -1.143,-1.6002 v -4.318 c 0,-3.0226 -0.762,-5.08 -3.5306,-5.08 0,0 -1.2446,-0.0762 -2.3368,0.4826 -1.3716,0.7366 -1.8034,1.4986 -1.9812,1.8796 -0.2032,0.3556 -0.1524,0.8636 0.127,1.2446 0.381,0.5334 1.1176,0.635 1.6256,0.2286 0.5334,-0.381 0.635,-1.143 0.254,-1.651 -0.2032,-0.2794 -0.4826,-0.4064 -0.7874,-0.4572 -0.1524,-0.0254 0,-0.508 0.9906,-0.9906 2.032,-0.9398 3.3528,0.5334 3.3528,3.1496 v 1.4732 c -4.3434,1.1176 -6.5024,1.6764 -6.5024,4.2164 0,2.6162 2.8956,2.6162 2.8956,2.6162 1.778,0 3.2512,-0.9144 3.6068,-2.1336 0.1524,2.1844 2.159,2.1336 2.159,2.1336 1.3208,0 2.1844,-0.9652 2.3368,-1.7272 l -0.3048,-0.127 c -0.1778,0.6604 -0.762,0.6604 -0.762,0.6604 z"
         style="font-style:normal;font-variant:normal;font-weight:normal;font-stretch:normal;font-size:25.39999962px;font-family:Butler;-inkscape-font-specification:'Butler, Normal';font-variant-ligatures:normal;font-variant-caps:normal;font-variant-numeric:normal;font-feature-settings:normal;text-align:start;writing-mode:lr-tb;text-anchor:start;fill:#000505;fill-opacity:1;stroke:none;stroke-width:0.26458332px"
         id="path1488"
         inkscape:connector-curvature="0" />
      <path
         d="m 96.716319,64.672584 c -1.016,0.127 -2.4638,0.8636 -3.4036,2.5908 v -2.667 l -3.505199,0.7366 v 0.3048 c 1.0414,0.2794 1.27,0.635 1.27,1.524 v 7.0358 c 0,1.3208 -0.0508,1.7526 -1.016,2.032 v 0.3302 h 4.292599 v -0.3302 c -0.9144,-0.2286 -1.0414,-0.6096 -1.0414,-2.032 v -6.3246 c 0.7874,-1.7018 2.4892,-2.3114 2.413,-1.8796 -0.0762,0.3302 0.0508,0.6858 0.2794,0.9652 0.5334,0.6096 1.397,0.6604 1.9812,0.1778 0.6096,-0.508 0.6858,-1.3716 0.1778,-1.9812 -0.3556,-0.4064 -0.9906,-0.5334 -1.4478,-0.4826 z"
         style="font-style:normal;font-variant:normal;font-weight:normal;font-stretch:normal;font-size:25.39999962px;font-family:Butler;-inkscape-font-specification:'Butler, Normal';font-variant-ligatures:normal;font-variant-caps:normal;font-variant-numeric:normal;font-feature-settings:normal;text-align:start;writing-mode:lr-tb;text-anchor:start;fill:#000505;fill-opacity:1;stroke:none;stroke-width:0.26458332px"
         id="path1490"
         inkscape:connector-curvature="0" />
      <path
         d="m 105.62775,70.285984 c 0,0 0,3.7592 0,3.7846 -0.254,0.6096 -0.889,1.5748 -2.2352,1.5748 -1.5494,0 -2.0066,-1.27 -2.0066,-2.0066 0,-1.524 1.2954,-2.6416 4.2418,-3.3528 z m 3.429,5.3086 c -1.1684,0 -1.143,-1.6002 -1.143,-1.6002 v -4.318 c 0,-3.0226 -0.762,-5.08 -3.5306,-5.08 0,0 -1.2446,-0.0762 -2.3368,0.4826 -1.3716,0.7366 -1.8034,1.4986 -1.9812,1.8796 -0.203204,0.3556 -0.152404,0.8636 0.127,1.2446 0.381,0.5334 1.1176,0.635 1.6256,0.2286 0.5334,-0.381 0.635,-1.143 0.254,-1.651 -0.2032,-0.2794 -0.4826,-0.4064 -0.7874,-0.4572 -0.1524,-0.0254 0,-0.508 0.9906,-0.9906 2.032,-0.9398 3.3528,0.5334 3.3528,3.1496 v 1.4732 c -4.3434,1.1176 -6.502404,1.6764 -6.502404,4.2164 0,2.6162 2.895604,2.6162 2.895604,2.6162 1.778,0 3.2512,-0.9144 3.6068,-2.1336 0.1524,2.1844 2.159,2.1336 2.159,2.1336 1.3208,0 2.1844,-0.9652 2.3368,-1.7272 l -0.3048,-0.127 c -0.1778,0.6604 -0.762,0.6604 -0.762,0.6604 z"
         style="font-style:normal;font-variant:normal;font-weight:normal;font-stretch:normal;font-size:25.39999962px;font-family:Butler;-inkscape-font-specification:'Butler, Normal';font-variant-ligatures:normal;font-variant-caps:normal;font-variant-numeric:normal;font-feature-settings:normal;text-align:start;writing-mode:lr-tb;text-anchor:start;fill:#000505;fill-opacity:1;stroke:none;stroke-width:0.26458332px"
         id="path1492"
         inkscape:connector-curvature="0" />
    </g>
    <g
       aria-label="ticivara.github.io"
       style="font-style:normal;font-variant:normal;font-weight:normal;font-stretch:normal;font-size:7.05555534px;line-height:5.29166651px;font-family:'Fira Sans';-inkscape-font-specification:'Fira Sans, Normal';font-variant-ligatures:normal;font-variant-caps:normal;font-variant-numeric:normal;font-feature-settings:normal;text-align:center;letter-spacing:0.79374999px;word-spacing:0px;writing-mode:lr-tb;text-anchor:middle;display:inline;fill:#000505;fill-opacity:1;stroke:none;stroke-width:0.26458332px;stroke-linecap:butt;stroke-linejoin:miter;stroke-opacity:1"
       id="text834">
      <path
         d="m 37.692613,23.88423 c -0.09176,0.187052 -0.183558,0.31341 -0.315559,0.407802 -0.264002,0.188783 -0.464168,0.115071 -0.681679,-0.189105 l -1.28865,-1.802103 0.660005,-0.471958 -0.233991,-0.448521 -0.717397,0.512998 -0.533518,-0.746094 -0.482861,0.440698 0.488374,0.682962 -0.528004,0.377566 0.291383,0.407482 0.528004,-0.377566 1.305067,1.825059 c 0.40219,0.56244 0.919774,0.643366 1.430561,0.278111 0.258263,-0.184679 0.427104,-0.4095 0.52948,-0.69088 z"
         style="font-style:normal;font-variant:normal;font-weight:normal;font-stretch:normal;font-size:7.05555534px;font-family:'Fira Sans';-inkscape-font-specification:'Fira Sans, Normal';font-variant-ligatures:normal;font-variant-caps:normal;font-variant-numeric:normal;font-feature-settings:normal;text-align:center;letter-spacing:0.79374999px;writing-mode:lr-tb;text-anchor:middle;fill:#000505;fill-opacity:1;stroke:none;stroke-width:0.26458332px"
         id="path1495"
         inkscape:connector-curvature="0" />
      <path
         d="m 36.807974,18.608909 c -0.226783,0.143014 -0.280336,0.402001 -0.144849,0.616848 0.131723,0.20888 0.388506,0.272163 0.615289,0.12915 0.232751,-0.146778 0.286303,-0.405765 0.15458,-0.614644 -0.135487,-0.214847 -0.392269,-0.278131 -0.62502,-0.131354 z m 1.232666,1.333013 -0.549054,0.346244 1.983377,3.145124 0.549054,-0.346244 z"
         style="font-style:normal;font-variant:normal;font-weight:normal;font-stretch:normal;font-size:7.05555534px;font-family:'Fira Sans';-inkscape-font-specification:'Fira Sans, Normal';font-variant-ligatures:normal;font-variant-caps:normal;font-variant-numeric:normal;font-feature-settings:normal;text-align:center;letter-spacing:0.79374999px;writing-mode:lr-tb;text-anchor:middle;fill:#000505;fill-opacity:1;stroke:none;stroke-width:0.26458332px"
         id="path1497"
         inkscape:connector-curvature="0" />
      <path
         d="m 41.229756,18.002662 c -0.887145,0.480564 -1.05049,1.467763 -0.485911,2.510003 0.5713,1.054649 1.456655,1.385502 2.337597,0.908298 0.378432,-0.204996 0.640023,-0.507184 0.803899,-0.900876 l -0.462195,-0.231084 c -0.160777,0.295722 -0.306047,0.486754 -0.579015,0.63462 -0.514916,0.278929 -1.029068,0.100062 -1.49283,-0.756064 -0.460401,-0.849922 -0.356241,-1.427921 0.158676,-1.70685 0.272967,-0.147866 0.521381,-0.178116 0.832093,-0.137798 l 0.07805,-0.507687 c -0.441771,-0.08969 -0.805731,-0.02092 -1.190368,0.187438 z"
         style="font-style:normal;font-variant:normal;font-weight:normal;font-stretch:normal;font-size:7.05555534px;font-family:'Fira Sans';-inkscape-font-specification:'Fira Sans, Normal';font-variant-ligatures:normal;font-variant-caps:normal;font-variant-numeric:normal;font-feature-settings:normal;text-align:center;letter-spacing:0.79374999px;writing-mode:lr-tb;text-anchor:middle;fill:#000505;fill-opacity:1;stroke:none;stroke-width:0.26458332px"
         id="path1499"
         inkscape:connector-curvature="0" />
      <path
         d="m 43.553595,14.954431 c -0.243695,0.111786 -0.331006,0.361424 -0.225103,0.592293 0.102961,0.224456 0.349128,0.321122 0.592823,0.209335 0.250108,-0.114728 0.337419,-0.364366 0.234458,-0.588822 -0.105903,-0.230869 -0.35207,-0.327535 -0.602178,-0.212806 z m 1.045677,1.484233 -0.589999,0.270642 1.550305,3.379666 0.589999,-0.270642 z"
         style="font-style:normal;font-variant:normal;font-weight:normal;font-stretch:normal;font-size:7.05555534px;font-family:'Fira Sans';-inkscape-font-specification:'Fira Sans, Normal';font-variant-ligatures:normal;font-variant-caps:normal;font-variant-numeric:normal;font-feature-settings:normal;text-align:center;letter-spacing:0.79374999px;writing-mode:lr-tb;text-anchor:middle;fill:#000505;fill-opacity:1;stroke:none;stroke-width:0.26458332px"
         id="path1501"
         inkscape:connector-curvature="0" />
      <path
         d="m 49.333786,14.527984 -0.639628,0.243442 0.213427,3.278207 -2.026806,-2.588037 -0.659411,0.25097 2.522743,3.018327 0.731946,-0.278577 z"
         style="font-style:normal;font-variant:normal;font-weight:normal;font-stretch:normal;font-size:7.05555534px;font-family:'Fira Sans';-inkscape-font-specification:'Fira Sans, Normal';font-variant-ligatures:normal;font-variant-caps:normal;font-variant-numeric:normal;font-feature-settings:normal;text-align:center;letter-spacing:0.79374999px;writing-mode:lr-tb;text-anchor:middle;fill:#000505;fill-opacity:1;stroke:none;stroke-width:0.26458332px"
         id="path1503"
         inkscape:connector-curvature="0" />
      <path
         d="m 54.184845,16.046091 -0.468808,-1.634485 c -0.213979,-0.74603 -0.733783,-1.074041 -1.595109,-0.826993 -0.400143,0.114771 -0.770162,0.308981 -1.164312,0.598194 l 0.286321,0.409659 c 0.331219,-0.227122 0.644089,-0.390261 0.90859,-0.466126 0.495093,-0.142004 0.800498,-0.02408 0.948338,0.491359 l 0.07587,0.264501 -0.549349,0.157567 c -0.996968,0.285953 -1.454785,0.865009 -1.234971,1.631385 0.182855,0.637517 0.736569,0.955802 1.448689,0.751549 0.434054,-0.124497 0.767165,-0.396202 0.911113,-0.841192 0.209668,0.321545 0.481109,0.39783 0.852232,0.335424 l 0.01793,-0.474905 c -0.202569,-0.0153 -0.347044,-0.08396 -0.436526,-0.395937 z M 52.8483,16.913886 c -0.406926,0.116716 -0.681364,-0.04679 -0.801971,-0.46728 -0.140058,-0.488311 0.122235,-0.827784 0.780098,-1.016475 l 0.467964,-0.134223 0.235377,0.820634 c -0.09647,0.431373 -0.315235,0.6923 -0.681468,0.797344 z"
         style="font-style:normal;font-variant:normal;font-weight:normal;font-stretch:normal;font-size:7.05555534px;font-family:'Fira Sans';-inkscape-font-specification:'Fira Sans, Normal';font-variant-ligatures:normal;font-variant-caps:normal;font-variant-numeric:normal;font-feature-settings:normal;text-align:center;letter-spacing:0.79374999px;writing-mode:lr-tb;text-anchor:middle;fill:#000505;fill-opacity:1;stroke:none;stroke-width:0.26458332px"
         id="path1505"
         inkscape:connector-curvature="0" />
      <path
         d="m 57.316417,12.344266 c -0.442238,0.09126 -0.723791,0.437524 -0.804625,1.023336 l -0.21476,-0.726534 -0.545888,0.112645 0.751442,3.641555 0.635717,-0.131181 -0.429191,-2.079902 c 0.008,-0.729276 0.203567,-1.108229 0.659625,-1.202337 0.13129,-0.02709 0.210151,-0.02896 0.326414,-0.02413 l -0.01086,-0.646137 c -0.116263,-0.0048 -0.250404,0.0084 -0.367874,0.03269 z"
         style="font-style:normal;font-variant:normal;font-weight:normal;font-stretch:normal;font-size:7.05555534px;font-family:'Fira Sans';-inkscape-font-specification:'Fira Sans, Normal';font-variant-ligatures:normal;font-variant-caps:normal;font-variant-numeric:normal;font-feature-settings:normal;text-align:center;letter-spacing:0.79374999px;writing-mode:lr-tb;text-anchor:middle;fill:#000505;fill-opacity:1;stroke:none;stroke-width:0.26458332px"
         id="path1507"
         inkscape:connector-curvature="0" />
      <path
         d="m 62.093651,14.607068 -0.217046,-1.686479 c -0.09907,-0.769763 -0.563481,-1.172387 -1.452207,-1.05801 -0.412872,0.05314 -0.80794,0.189345 -1.241185,0.415832 l 0.221291,0.448142 c 0.361672,-0.174594 0.695561,-0.288702 0.968476,-0.323826 0.510843,-0.06574 0.79498,0.09687 0.863426,0.628709 l 0.03512,0.272916 -0.566826,0.07295 c -1.028682,0.132389 -1.568561,0.635809 -1.466793,1.426565 0.08466,0.657797 0.58406,1.055918 1.318834,0.961354 0.447861,-0.05764 0.818126,-0.276021 1.027513,-0.694224 0.158797,0.349478 0.415636,0.465812 0.791925,0.460067 l 0.08932,-0.466775 c -0.197948,-0.04566 -0.33042,-0.135319 -0.371848,-0.45722 z m -1.452094,0.656389 c -0.41987,0.05404 -0.666523,-0.148974 -0.722361,-0.58284 -0.06484,-0.503844 0.245629,-0.799896 0.92442,-0.887255 l 0.482851,-0.06214 0.108973,0.846739 c -0.160402,0.411899 -0.415999,0.636865 -0.793883,0.685498 z"
         style="font-style:normal;font-variant:normal;font-weight:normal;font-stretch:normal;font-size:7.05555534px;font-family:'Fira Sans';-inkscape-font-specification:'Fira Sans, Normal';font-variant-ligatures:normal;font-variant-caps:normal;font-variant-numeric:normal;font-feature-settings:normal;text-align:center;letter-spacing:0.79374999px;writing-mode:lr-tb;text-anchor:middle;fill:#000505;fill-opacity:1;stroke:none;stroke-width:0.26458332px"
         id="path1509"
         inkscape:connector-curvature="0" />
      <path
         d="m 64.446555,14.398774 c -0.274653,0.01681 -0.472564,0.248052 -0.456186,0.515662 0.01681,0.274653 0.24144,0.480037 0.516093,0.463229 0.281695,-0.01724 0.479606,-0.248482 0.462797,-0.523135 -0.01638,-0.267611 -0.241009,-0.472995 -0.522704,-0.455756 z"
         style="font-style:normal;font-variant:normal;font-weight:normal;font-stretch:normal;font-size:7.05555534px;font-family:'Fira Sans';-inkscape-font-specification:'Fira Sans, Normal';font-variant-ligatures:normal;font-variant-caps:normal;font-variant-numeric:normal;font-feature-settings:normal;text-align:center;letter-spacing:0.79374999px;writing-mode:lr-tb;text-anchor:middle;fill:#000505;fill-opacity:1;stroke:none;stroke-width:0.26458332px"
         id="path1511"
         inkscape:connector-curvature="0" />
      <path
         d="m 69.572096,11.066649 c -0.438103,0.19609 -0.777287,0.350178 -1.701489,0.325917 -0.81844,-0.0027 -1.434065,0.531425 -1.436615,1.293421 -0.0016,0.479775 0.194862,0.80499 0.624493,1.032207 -0.2687,0.175491 -0.410613,0.414906 -0.411416,0.654793 -0.0013,0.373943 0.29397,0.706544 0.957188,0.708764 l 0.585608,0.002 c 0.465664,0.0016 0.747294,0.178891 0.746113,0.531667 -0.0013,0.373942 -0.284157,0.577608 -1.088486,0.574915 -0.81844,-0.0027 -1.008277,-0.200931 -1.00686,-0.624262 l -0.585608,-0.002 c -0.0025,0.75494 0.377219,1.130158 1.590768,1.13422 1.150049,0.0038 1.744082,-0.403387 1.746491,-1.12305 0.002,-0.592663 -0.504549,-1.031805 -1.266545,-1.034356 l -0.592663,-0.002 c -0.380998,-0.0013 -0.486382,-0.135684 -0.485815,-0.305016 4.48e-4,-0.134055 0.07851,-0.26785 0.1846,-0.345107 0.155056,0.04991 0.303151,0.07157 0.472484,0.07214 0.888995,0.003 1.41993,-0.524417 1.422386,-1.258191 0.0014,-0.430386 -0.216241,-0.741561 -0.653022,-0.94058 0.423331,0.0014 0.776154,-0.01151 1.086927,-0.109251 z m -1.703048,0.791581 c 0.529164,0.0018 0.796329,0.28489 0.794511,0.828164 -0.0018,0.53622 -0.278,0.845741 -0.785997,0.844041 -0.507997,-0.0017 -0.782005,-0.348342 -0.780352,-0.842228 0.0016,-0.486831 0.270897,-0.831653 0.771838,-0.829977 z"
         style="font-style:normal;font-variant:normal;font-weight:normal;font-stretch:normal;font-size:7.05555534px;font-family:'Fira Sans';-inkscape-font-specification:'Fira Sans, Normal';font-variant-ligatures:normal;font-variant-caps:normal;font-variant-numeric:normal;font-feature-settings:normal;text-align:center;letter-spacing:0.79374999px;writing-mode:lr-tb;text-anchor:middle;fill:#000505;fill-opacity:1;stroke:none;stroke-width:0.26458332px"
         id="path1513"
         inkscape:connector-curvature="0" />
      <path
         d="m 71.915687,9.8406495 c -0.26743,-0.01909 -0.463974,0.1578641 -0.482059,0.4112195 -0.01758,0.246317 0.151831,0.449396 0.419261,0.468486 0.274469,0.01959 0.471012,-0.157361 0.488595,-0.403679 0.01809,-0.253355 -0.151329,-0.4564337 -0.425797,-0.4760265 z m 0.203667,1.8041365 -0.647463,-0.04622 -0.264755,3.70884 0.647463,0.04622 z"
         style="font-style:normal;font-variant:normal;font-weight:normal;font-stretch:normal;font-size:7.05555534px;font-family:'Fira Sans';-inkscape-font-specification:'Fira Sans, Normal';font-variant-ligatures:normal;font-variant-caps:normal;font-variant-numeric:normal;font-feature-settings:normal;text-align:center;letter-spacing:0.79374999px;writing-mode:lr-tb;text-anchor:middle;fill:#000505;fill-opacity:1;stroke:none;stroke-width:0.26458332px"
         id="path1515"
         inkscape:connector-curvature="0" />
      <path
         d="m 75.667205,15.174034 c -0.194649,0.0743 -0.347947,0.104175 -0.508871,0.08325 -0.321846,-0.04185 -0.418047,-0.232227 -0.369834,-0.60305 l 0.285643,-2.196953 0.804617,0.104614 0.134554,-0.487666 -0.874583,-0.113712 0.11826,-0.909566 -0.6537,-0.0067 -0.108253,0.832603 -0.643693,-0.08369 -0.06459,0.496764 0.643693,0.08369 -0.289282,2.22494 c -0.08915,0.685673 0.23437,1.097713 0.857073,1.178676 0.31485,0.04094 0.59164,-0.0085 0.858356,-0.144537 z"
         style="font-style:normal;font-variant:normal;font-weight:normal;font-stretch:normal;font-size:7.05555534px;font-family:'Fira Sans';-inkscape-font-specification:'Fira Sans, Normal';font-variant-ligatures:normal;font-variant-caps:normal;font-variant-numeric:normal;font-feature-settings:normal;text-align:center;letter-spacing:0.79374999px;writing-mode:lr-tb;text-anchor:middle;fill:#000505;fill-opacity:1;stroke:none;stroke-width:0.26458332px"
         id="path1517"
         inkscape:connector-curvature="0" />
      <path
         d="m 79.780403,12.683012 c -0.455605,-0.09628 -0.862705,0.05567 -1.200878,0.359201 l 0.42887,-2.029515 -0.649673,-0.06517 -1.076553,5.094495 0.635086,0.134205 0.547029,-2.588667 c 0.32184,-0.328615 0.658841,-0.524221 1.052318,-0.441073 0.345156,0.07294 0.54631,0.281306 0.43107,0.826652 l -0.532442,2.519635 0.635086,0.134204 0.551405,-2.609375 c 0.144416,-0.683408 -0.158619,-1.194549 -0.821318,-1.334589 z"
         style="font-style:normal;font-variant:normal;font-weight:normal;font-stretch:normal;font-size:7.05555534px;font-family:'Fira Sans';-inkscape-font-specification:'Fira Sans, Normal';font-variant-ligatures:normal;font-variant-caps:normal;font-variant-numeric:normal;font-feature-settings:normal;text-align:center;letter-spacing:0.79374999px;writing-mode:lr-tb;text-anchor:middle;fill:#000505;fill-opacity:1;stroke:none;stroke-width:0.26458332px"
         id="path1519"
         inkscape:connector-curvature="0" />
      <path
         d="m 85.829252,14.433837 -0.619647,-0.193348 -0.790203,2.532469 c -0.326915,0.289719 -0.696393,0.455291 -1.080304,0.335499 -0.383912,-0.119791 -0.488815,-0.352083 -0.3375,-0.837024 l 0.773391,-2.478586 -0.619647,-0.193348 -0.794407,2.54594 c -0.216465,0.693734 0.03208,1.199969 0.651729,1.393317 0.505147,0.157621 0.898224,0.05854 1.302139,-0.288454 l -0.125185,0.567005 0.532088,0.166027 z"
         style="font-style:normal;font-variant:normal;font-weight:normal;font-stretch:normal;font-size:7.05555534px;font-family:'Fira Sans';-inkscape-font-specification:'Fira Sans, Normal';font-variant-ligatures:normal;font-variant-caps:normal;font-variant-numeric:normal;font-feature-settings:normal;text-align:center;letter-spacing:0.79374999px;writing-mode:lr-tb;text-anchor:middle;fill:#000505;fill-opacity:1;stroke:none;stroke-width:0.26458332px"
         id="path1521"
         inkscape:connector-curvature="0" />
      <path
         d="m 89.765779,15.863378 c -0.416515,-0.174406 -0.814437,-0.119201 -1.182256,0.10159 l 0.787549,-1.880827 -0.628717,-0.17912 -2.013837,4.809453 0.527152,0.220732 0.216628,-0.352942 c 0.114386,0.384458 0.342904,0.679021 0.720372,0.837076 0.833031,0.348811 1.649651,-0.158302 2.09929,-1.232131 0.479615,-1.145418 0.248278,-1.999546 -0.526181,-2.323831 z M 88.248424,18.8843 c -0.305879,-0.128079 -0.50019,-0.431266 -0.561454,-0.778181 l 0.686721,-1.64003 c 0.290171,-0.199761 0.646481,-0.35653 1.023948,-0.198476 0.481596,0.201657 0.658786,0.673605 0.250024,1.649813 -0.392412,0.93716 -0.898119,1.176706 -1.399239,0.966874 z"
         style="font-style:normal;font-variant:normal;font-weight:normal;font-stretch:normal;font-size:7.05555534px;font-family:'Fira Sans';-inkscape-font-specification:'Fira Sans, Normal';font-variant-ligatures:normal;font-variant-caps:normal;font-variant-numeric:normal;font-feature-settings:normal;text-align:center;letter-spacing:0.79374999px;writing-mode:lr-tb;text-anchor:middle;fill:#000505;fill-opacity:1;stroke:none;stroke-width:0.26458332px"
         id="path1523"
         inkscape:connector-curvature="0" />
      <path
         d="m 91.767941,19.997102 c -0.245658,-0.12397 -0.533167,-0.02407 -0.653958,0.215294 -0.12397,0.245659 -0.03354,0.536288 0.212116,0.660258 0.251957,0.127149 0.539466,0.02724 0.663436,-0.218415 0.120791,-0.239359 0.03036,-0.529988 -0.221594,-0.657137 z"
         style="font-style:normal;font-variant:normal;font-weight:normal;font-stretch:normal;font-size:7.05555534px;font-family:'Fira Sans';-inkscape-font-specification:'Fira Sans, Normal';font-variant-ligatures:normal;font-variant-caps:normal;font-variant-numeric:normal;font-feature-settings:normal;text-align:center;letter-spacing:0.79374999px;writing-mode:lr-tb;text-anchor:middle;fill:#000505;fill-opacity:1;stroke:none;stroke-width:0.26458332px"
         id="path1525"
         inkscape:connector-curvature="0" />
      <path
         d="m 96.410713,17.26102 c -0.23299,-0.132662 -0.486664,-0.05788 -0.612343,0.162843 -0.122188,0.214597 -0.05703,0.470911 0.175957,0.603572 0.239122,0.136153 0.492796,0.06137 0.614984,-0.153221 0.125679,-0.220728 0.06052,-0.477042 -0.178598,-0.613194 z m -0.595073,1.715306 -0.564082,-0.32118 -1.839805,3.231208 0.564082,0.321181 z"
         style="font-style:normal;font-variant:normal;font-weight:normal;font-stretch:normal;font-size:7.05555534px;font-family:'Fira Sans';-inkscape-font-specification:'Fira Sans, Normal';font-variant-ligatures:normal;font-variant-caps:normal;font-variant-numeric:normal;font-feature-settings:normal;text-align:center;letter-spacing:0.79374999px;writing-mode:lr-tb;text-anchor:middle;fill:#000505;fill-opacity:1;stroke:none;stroke-width:0.26458332px"
         id="path1527"
         inkscape:connector-curvature="0" />
      <path
         d="m 99.085345,20.914917 c -0.87895,-0.589505 -1.826975,-0.265345 -2.46757,0.689781 -0.656315,0.978565 -0.582686,1.945462 0.296264,2.534967 0.873091,0.585574 1.821116,0.261414 2.461711,-0.693712 0.65631,-0.978565 0.588546,-1.941531 -0.290405,-2.531036 z m -0.290822,0.433615 c 0.509791,0.341913 0.539533,0.905573 0.0011,1.708348 -0.542344,0.808634 -1.07513,0.995012 -1.590781,0.649169 -0.515651,-0.345843 -0.545393,-0.909503 -0.007,-1.712278 0.542344,-0.808634 1.08099,-0.991081 1.596641,-0.645239 z"
         style="font-style:normal;font-variant:normal;font-weight:normal;font-stretch:normal;font-size:7.05555534px;font-family:'Fira Sans';-inkscape-font-specification:'Fira Sans, Normal';font-variant-ligatures:normal;font-variant-caps:normal;font-variant-numeric:normal;font-feature-settings:normal;text-align:center;letter-spacing:0.79374999px;writing-mode:lr-tb;text-anchor:middle;fill:#000505;fill-opacity:1;stroke:none;stroke-width:0.26458332px"
         id="path1529"
         inkscape:connector-curvature="0" />
    </g>
    <g
       aria-label="Robe Sewing"
       style="font-style:normal;font-variant:normal;font-weight:normal;font-stretch:normal;font-size:12.69999981px;line-height:5.29166651px;font-family:Butler;-inkscape-font-specification:'Butler, Normal';font-variant-ligatures:normal;font-variant-caps:normal;font-variant-numeric:normal;font-feature-settings:normal;text-align:center;letter-spacing:0.5291667px;word-spacing:0px;writing-mode:lr-tb;text-anchor:middle;display:inline;fill:#000505;fill-opacity:1;stroke:none;stroke-width:0.26458332px;stroke-linecap:butt;stroke-linejoin:miter;stroke-opacity:1"
       id="text857">
      <path
         d="m 40.960829,108.87836 c -1.365018,1.80195 -2.227956,1.13233 -3.371893,0.26577 l -0.313823,-0.23773 2.722369,-3.59378 0.313823,0.23773 c 1.083197,0.82054 2.045218,1.48556 0.649524,3.32801 z m -1.627435,6.73343 c -0.24787,-0.21963 -0.808953,-0.80399 -0.408356,-1.7114 1.15302,-2.61578 0.50819,-3.21578 -0.136944,-3.75228 1.147001,0.75735 2.243366,0.95057 3.286302,-0.4262 1.280664,-1.6906 0.351145,-2.77711 -1.663399,-4.30317 l -1.933556,-1.46471 -0.09969,0.1316 c 0.445427,0.33742 0.520286,0.61719 0.04483,1.24483 l -3.818985,5.04142 c -0.644167,0.85036 -0.989883,0.90713 -1.425186,0.57737 l -0.09969,0.13161 2.267627,1.71777 0.09969,-0.1316 c -0.42518,-0.32208 -0.479184,-0.71351 0.04995,-1.41202 l 1.679433,-2.21701 0.475797,0.36043 c 0.263206,0.19939 1.285663,0.97392 0.763909,2.25159 -1.087066,2.63388 -1.246585,2.52897 0.0492,3.51056 l 0.769373,0.58281 z"
         style="font-style:normal;font-variant:normal;font-weight:normal;font-stretch:normal;font-size:12.69999981px;font-family:Butler;-inkscape-font-specification:'Butler, Normal';font-variant-ligatures:normal;font-variant-caps:normal;font-variant-numeric:normal;font-feature-settings:normal;text-align:center;letter-spacing:0.5291667px;writing-mode:lr-tb;text-anchor:middle;fill:#000505;fill-opacity:1;stroke:none;stroke-width:0.26458332px"
         id="path1532"
         inkscape:connector-curvature="0" />
      <path
         d="m 45.614367,115.86025 c -1.09212,2.0227 -1.939606,2.22903 -2.788915,1.77046 -0.860483,-0.46461 -1.164034,-1.29242 -0.07191,-3.31511 1.09212,-2.0227 1.950781,-2.223 2.811265,-1.75839 0.849308,0.45857 1.141683,1.28035 0.04956,3.30304 z m 1.151036,0.62149 c 0.796464,-1.47512 0.587632,-3.14663 -1.12216,-4.06981 -1.698617,-0.91714 -3.233102,-0.1869 -4.029566,1.28822 -0.790429,1.46394 -0.565281,3.15869 1.133336,4.07583 1.709792,0.92318 3.227961,0.16969 4.01839,-1.29424 z"
         style="font-style:normal;font-variant:normal;font-weight:normal;font-stretch:normal;font-size:12.69999981px;font-family:Butler;-inkscape-font-specification:'Butler, Normal';font-variant-ligatures:normal;font-variant-caps:normal;font-variant-numeric:normal;font-feature-settings:normal;text-align:center;letter-spacing:0.5291667px;writing-mode:lr-tb;text-anchor:middle;fill:#000505;fill-opacity:1;stroke:none;stroke-width:0.26458332px"
         id="path1534"
         inkscape:connector-curvature="0" />
      <path
         d="m 52.104467,118.78142 c -0.69637,1.89542 -1.690215,2.20679 -2.488916,1.91335 -0.798702,-0.29344 -1.239748,-1.11845 -0.78426,-2.35822 l 0.661333,-1.80006 c 0.337236,-0.91791 1.070038,-1.36577 1.940265,-1.04606 1.03712,0.38104 1.359189,1.4194 0.671578,3.29099 z m 1.313012,0.29297 c 0.600017,-1.63316 0.150733,-3.24594 -1.434749,-3.82844 -0.607967,-0.22336 -1.532461,-0.21124 -2.126592,0.3011 l 1.519752,-4.13656 -1.763339,-0.28253 -0.05694,0.15497 c 0.465641,0.27932 0.511614,0.48563 0.362705,0.89094 l -2.789862,7.59362 c -0.07008,0.19074 0.571479,0.10172 1.015975,-0.11381 0.25762,0.51408 0.74661,0.9508 1.449945,1.2092 1.585482,0.5825 3.148629,0.0473 3.823101,-1.78849 z"
         style="font-style:normal;font-variant:normal;font-weight:normal;font-stretch:normal;font-size:12.69999981px;font-family:Butler;-inkscape-font-specification:'Butler, Normal';font-variant-ligatures:normal;font-variant-caps:normal;font-variant-numeric:normal;font-feature-settings:normal;text-align:center;letter-spacing:0.5291667px;writing-mode:lr-tb;text-anchor:middle;fill:#000505;fill-opacity:1;stroke:none;stroke-width:0.26458332px"
         id="path1536"
         inkscape:connector-curvature="0" />
      <path
         d="m 55.721559,119.29373 c 0.341721,-1.56328 1.350025,-2.36987 2.057227,-2.21528 0.595538,0.13018 1.241983,1.03848 0.846021,2.84991 z m 3.270287,2.40484 c -0.356218,0.55913 -1.337465,0.82564 -2.065615,0.58847 -0.95846,-0.31351 -1.55643,-1.14621 -1.239929,-2.83201 l 3.970253,0.86786 c 0.425796,-1.94791 -0.366074,-3.08299 -1.805291,-3.39759 -1.538473,-0.3363 -2.965094,0.59984 -3.366481,2.43608 -0.357993,1.63773 0.464178,3.16944 2.015058,3.50845 1.464031,0.32002 2.363384,-0.52338 2.627329,-1.07668 z"
         style="font-style:normal;font-variant:normal;font-weight:normal;font-stretch:normal;font-size:12.69999981px;font-family:Butler;-inkscape-font-specification:'Butler, Normal';font-variant-ligatures:normal;font-variant-caps:normal;font-variant-numeric:normal;font-feature-settings:normal;text-align:center;letter-spacing:0.5291667px;writing-mode:lr-tb;text-anchor:middle;fill:#000505;fill-opacity:1;stroke:none;stroke-width:0.26458332px"
         id="path1538"
         inkscape:connector-curvature="0" />
      <path
         d="m 69.813627,123.04768 c 0.668694,-1.03609 0.400559,-2.44798 -1.292263,-3.57913 l -2.08438,-1.40099 c -1.907701,-1.25987 -0.852239,-3.0168 0.519317,-3.00585 2.120832,0.0169 2.60557,1.34165 2.709929,2.58712 l 0.177794,10e-4 0.01704,-2.13353 c 0,0 -1.061999,-0.6054 -2.903441,-0.6201 -1.765243,-0.0141 -2.395433,0.9715 -2.395433,0.9715 -0.989835,1.49074 0.156601,2.65564 1.356674,3.46534 l 2.097282,1.37569 c 1.477436,1.06593 1.206307,3.21014 -0.724032,3.19472 -2.158931,-0.0172 -2.718954,-1.45685 -2.846278,-3.00732 l -0.152395,-0.001 -0.01947,2.43832 c 0,0 0.946791,0.71878 3.016825,0.73531 1.968437,0.0157 2.522835,-1.02129 2.522835,-1.02129 z"
         style="font-style:normal;font-variant:normal;font-weight:normal;font-stretch:normal;font-size:12.69999981px;font-family:Butler;-inkscape-font-specification:'Butler, Normal';font-variant-ligatures:normal;font-variant-caps:normal;font-variant-numeric:normal;font-feature-settings:normal;text-align:center;letter-spacing:0.5291667px;writing-mode:lr-tb;text-anchor:middle;fill:#000505;fill-opacity:1;stroke:none;stroke-width:0.26458332px"
         id="path1540"
         inkscape:connector-curvature="0" />
      <path
         d="m 72.665336,120.51677 c -0.199029,-1.58778 0.482672,-2.68438 1.20095,-2.77442 0.604867,-0.0758 1.517153,0.56499 1.747773,2.40479 z m 3.884951,1.17693 c -0.149425,0.6459 -0.985678,1.22431 -1.751239,1.24347 -1.008146,0.024 -1.849527,-0.56172 -2.113178,-2.25659 l 4.032443,-0.50547 c -0.247996,-1.97841 -1.372997,-2.78455 -2.834757,-2.60132 -1.562572,0.19587 -2.595461,1.55409 -2.361681,3.41909 0.208506,1.66339 1.494307,2.83335 3.06948,2.6359 1.486963,-0.18639 2.053672,-1.28138 2.118046,-1.89102 z"
         style="font-style:normal;font-variant:normal;font-weight:normal;font-stretch:normal;font-size:12.69999981px;font-family:Butler;-inkscape-font-specification:'Butler, Normal';font-variant-ligatures:normal;font-variant-caps:normal;font-variant-numeric:normal;font-feature-settings:normal;text-align:center;letter-spacing:0.5291667px;writing-mode:lr-tb;text-anchor:middle;fill:#000505;fill-opacity:1;stroke:none;stroke-width:0.26458332px"
         id="path1542"
         inkscape:connector-curvature="0" />
      <path
         d="m 83.047649,115.58663 0.04588,0.15859 c 1.219974,-0.35293 1.124049,1.23487 1.124049,1.23487 l -0.124711,2.90499 -2.378684,-2.92113 c 0,0 -0.609212,-0.64344 0.171572,-0.86932 l -0.04588,-0.1586 -2.34235,0.67764 0.04588,0.1586 c 0.186525,-0.0407 0.493436,-0.0767 0.92771,0.41909 0,0 0.07703,0.0835 0.69714,0.85598 l -0.149722,2.72713 -2.397943,-2.94199 c 0,0 -0.553354,-0.63316 0.129832,-0.83081 l -0.04588,-0.15859 -2.34235,0.67763 0.04588,0.1586 c 0.186525,-0.0407 0.554435,-0.0943 0.976509,0.40498 0,0 0.211843,0.22957 3.567873,4.33546 l 0.134197,-0.0388 0.239201,-4.15442 2.713136,3.30032 0.121997,-0.0353 0.232836,-4.49631 c 0.0924,-1.60001 0.554068,-1.78645 0.859062,-1.87468 l -0.04588,-0.1586 z"
         style="font-style:normal;font-variant:normal;font-weight:normal;font-stretch:normal;font-size:12.69999981px;font-family:Butler;-inkscape-font-specification:'Butler, Normal';font-variant-ligatures:normal;font-variant-caps:normal;font-variant-numeric:normal;font-feature-settings:normal;text-align:center;letter-spacing:0.5291667px;writing-mode:lr-tb;text-anchor:middle;fill:#000505;fill-opacity:1;stroke:none;stroke-width:0.26458332px"
         id="path1544"
         inkscape:connector-curvature="0" />
      <path
         d="m 85.851736,113.17255 c 0.325767,-0.14257 0.476248,-0.52728 0.333676,-0.85305 -0.147665,-0.3374 -0.527281,-0.47625 -0.853049,-0.33367 -0.337401,0.14766 -0.48134,0.51564 -0.333675,0.85305 0.142573,0.32576 0.515646,0.48134 0.853048,0.33367 z m 3.848358,5.81565 c -0.464671,0.0786 -0.599222,-0.0705 -0.884367,-0.72199 l -1.924733,-4.39786 -1.446269,1.03499 0.0611,0.13961 c 0.544662,-0.0859 0.709024,0.0363 0.887241,0.44348 l 1.410452,3.22277 c 0.259686,0.59336 0.328071,0.81297 -0.05803,1.13444 l 0.06619,0.15125 1.954604,-0.85544 z"
         style="font-style:normal;font-variant:normal;font-weight:normal;font-stretch:normal;font-size:12.69999981px;font-family:Butler;-inkscape-font-specification:'Butler, Normal';font-variant-ligatures:normal;font-variant-caps:normal;font-variant-numeric:normal;font-feature-settings:normal;text-align:center;letter-spacing:0.5291667px;writing-mode:lr-tb;text-anchor:middle;fill:#000505;fill-opacity:1;stroke:none;stroke-width:0.26458332px"
         id="path1546"
         inkscape:connector-curvature="0" />
      <path
         d="m 95.947296,115.65921 c -0.443307,0.11884 -0.615753,-0.0318 -0.958945,-0.64014 l -1.36029,-2.41138 c -0.755023,-1.33843 -1.628877,-1.41415 -2.524848,-0.90872 -0.696867,0.39311 -1.166829,1.34355 -1.037206,2.11614 l -0.655186,-1.16144 -1.345514,1.18188 0.07488,0.13274 c 0.533217,-0.1404 0.702826,-0.0465 0.921221,0.34063 l 1.740921,3.08612 c 0.318233,0.56413 0.41325,0.75841 0.06156,1.1172 l 0.08112,0.1438 1.858312,-1.04829 -0.08112,-0.1438 c -0.454369,0.12508 -0.603274,-0.01 -0.946466,-0.61802 l -1.516286,-2.68791 c -0.136144,-0.44813 0.01644,-1.26327 0.591632,-1.58775 0.730051,-0.41183 1.409055,-0.1387 1.833365,0.61347 l 1.341571,2.3782 c 0.318232,0.56413 0.414667,0.78678 0.06297,1.14557 l 0.07488,0.13273 1.858312,-1.04829 z"
         style="font-style:normal;font-variant:normal;font-weight:normal;font-stretch:normal;font-size:12.69999981px;font-family:Butler;-inkscape-font-specification:'Butler, Normal';font-variant-ligatures:normal;font-variant-caps:normal;font-variant-numeric:normal;font-feature-settings:normal;text-align:center;letter-spacing:0.5291667px;writing-mode:lr-tb;text-anchor:middle;fill:#000505;fill-opacity:1;stroke:none;stroke-width:0.26458332px"
         id="path1548"
         inkscape:connector-curvature="0" />
      <path
         d="m 97.890332,109.41869 c 0.861119,1.13212 0.528135,1.84813 0.06316,2.2018 -0.444762,0.3383 -1.23379,0.47572 -2.094909,-0.6564 -0.861119,-1.13212 -0.570988,-1.79958 -0.06558,-2.18401 0.434653,-0.33061 1.23621,-0.49351 2.097329,0.63861 z m 1.095624,-2.12583 c 0.06904,-0.30781 -0.115916,-0.6139 -0.421311,-0.70074 -0.211141,-0.0468 -0.44164,0.0487 -0.595683,0.18183 -0.219532,0.21485 -0.51622,0.66391 -0.47918,1.25803 -0.55654,-0.0394 -1.190236,0.15538 -1.796729,0.61669 -1.162445,0.88419 -1.33666,2.16556 -0.713887,2.98432 0.407494,0.53574 1.093178,0.89179 1.805751,0.71678 -0.732473,0.98796 -0.0462,1.8063 -0.0462,1.8063 0.276788,0.36389 0.64611,0.5138 1.046888,0.43234 -0.382665,0.88145 -0.258473,1.96776 0.638353,2.37064 0.998767,0.45299 2.701082,-0.60249 3.493892,-2.43415 0.60774,-1.40369 0.0383,-2.21519 0.0383,-2.21519 -0.82525,-1.46258 -2.017589,-0.49183 -2.715056,0.0387 l -1.212985,0.92263 c -1.19277,0.90725 -1.479281,-0.51832 -1.065703,-0.96055 0.347388,-0.0887 0.696765,-0.25872 1.090986,-0.55857 1.182661,-0.89957 1.33908,-2.18335 0.716306,-3.00212 -0.276788,-0.36389 -0.682563,-0.64564 -1.127483,-0.70613 -0.01795,-0.40121 0.264646,-0.67998 0.305938,-0.58374 0.05425,0.13426 0.186945,0.2248 0.344697,0.26437 0.305394,0.0868 0.613909,-0.11591 0.693057,-0.43142 z m -0.06927,8.90846 c 0.03559,0.005 -1.421752,-0.27487 -0.945851,-1.6421 0.461428,-0.12759 0.847959,-0.43755 0.95915,-0.52212 l 1.394925,-1.06102 c 0.86931,-0.66122 1.30186,-0.17645 1.30186,-0.17645 0,0 0.55514,0.58299 0.13575,1.66789 -0.47676,1.24024 -1.940188,1.9385 -2.845834,1.7338 z"
         style="font-style:normal;font-variant:normal;font-weight:normal;font-stretch:normal;font-size:12.69999981px;font-family:Butler;-inkscape-font-specification:'Butler, Normal';font-variant-ligatures:normal;font-variant-caps:normal;font-variant-numeric:normal;font-feature-settings:normal;text-align:center;letter-spacing:0.5291667px;writing-mode:lr-tb;text-anchor:middle;fill:#000505;fill-opacity:1;stroke:none;stroke-width:0.26458332px"
         id="path1550"
         inkscape:connector-curvature="0" />
    </g>
  </g>
</svg>
